<svg width="35" height="36" viewBox="0 0 35 36" fill="none" xmlns="http://www.w3.org/2000/svg">
<path d="M10.2055 0C4.57778 0 0 4.71293 0 10.5029V25.5029C0 31.2914 4.58202 36 10.2112 36H24.7945C30.4222 36 35 31.2871 35 25.4971V10.4971C35 4.70857 30.418 0 24.7888 0H10.2055ZM27.7083 6C28.5133 6 29.1667 6.672 29.1667 7.5C29.1667 8.328 28.5133 9 27.7083 9C26.9033 9 26.25 8.328 26.25 7.5C26.25 6.672 26.9033 6 27.7083 6ZM17.5 9C22.3256 9 26.25 13.0365 26.25 18C26.25 22.9635 22.3256 27 17.5 27C12.6744 27 8.75 22.9635 8.75 18C8.75 13.0365 12.6744 9 17.5 9ZM17.5 12C15.9529 12 14.4692 12.6321 13.3752 13.7574C12.2812 14.8826 11.6667 16.4087 11.6667 18C11.6667 19.5913 12.2812 21.1174 13.3752 22.2426C14.4692 23.3679 15.9529 24 17.5 24C19.0471 24 20.5308 23.3679 21.6248 22.2426C22.7188 21.1174 23.3333 19.5913 23.3333 18C23.3333 16.4087 22.7188 14.8826 21.6248 13.7574C20.5308 12.6321 19.0471 12 17.5 12Z" fill="white"/>
</svg>
