<svg width="1643" height="441" viewBox="0 0 1643 441" fill="none" xmlns="http://www.w3.org/2000/svg">
<g style="mix-blend-mode:screen" opacity="0.3">
<path d="M150.786 238.044L150.767 238.038C142.546 235.303 135.289 233.052 128.899 231.071C121.017 228.626 114.455 226.591 109.031 224.561L109.02 224.557L109.009 224.553C100.392 220.867 91.738 215.939 85.5393 209.752C79.33 203.556 75.5762 196.087 75.5762 187.357C75.5762 176.149 80.584 167.439 90.501 160.016L90.518 160.004L90.536 159.992C100.453 153.807 114.05 150.12 132.52 150.12C151.016 150.12 165.854 155.044 177 163.695C188.051 172.273 194.231 184.488 195.557 199.102H264.52C263.189 166.42 250.983 141.007 227.907 121.614C204.704 102.114 174.151 92.3418 136.201 92.3418C110.48 92.3418 88.4661 96.0088 68.914 104.546C49.3619 113.082 34.7058 125.273 23.7134 139.9C12.7398 154.501 7.86221 170.313 7.86221 188.581C7.86221 210.523 13.9665 227.55 24.9274 240.92C35.9168 254.324 49.3432 264.068 65.212 270.159C79.9027 275.798 98.7671 281.439 120.869 288.047C122.732 288.604 124.617 289.168 126.525 289.739C126.526 289.739 126.527 289.739 126.528 289.74L126.385 290.219C152.152 297.566 170.558 303.689 182.828 309.812C195.099 315.934 201.234 325.731 201.234 337.976C201.234 350.222 196.326 360.018 185.282 367.365C174.239 374.713 159.515 378.386 139.882 378.386C121.476 378.386 105.525 373.488 93.2547 363.692C80.9843 353.895 73.6221 342.874 72.3951 328.18L150.786 238.044ZM150.786 238.044L150.804 238.048C175.314 244.163 194.924 251.502 210.871 257.623C226.74 263.714 240.166 273.458 251.156 286.862C262.119 300.234 268.221 317.263 268.221 337.976C268.221 357.466 263.344 373.284 252.364 389.115C241.371 403.739 226.715 415.928 208.39 424.463C188.843 432.997 166.834 436.664 141.12 436.665C112.956 435.442 89.7072 430.555 68.9156 422.012C48.1223 412.245 32.2479 400.051 20.0391 382.994L20.034 382.986L20.0286 382.979C7.93189 367.285 1.82564 349.193 0.531436 328.68H71.9371L150.786 238.044Z" stroke="white" stroke-opacity="0.2"/>
<path d="M405.649 105.311V105.811H406.149H455.958V172.161H406.149H405.649V172.661V430.541H330.573V172.661V172.161H330.073H280.265V105.811H330.073H330.573V105.311V23.6364L405.649 0.675777V105.311Z" stroke="white" stroke-opacity="0.2"/>
<path d="M717.404 144.782L718.315 146.095V144.497V105.811H792.164V430.541H720.769V390.631L719.829 390.394C711.293 406.214 697.879 418.385 682.022 425.689C666.161 432.994 644.156 436.664 618.425 436.664C570.697 436.664 530.335 420.793 497.305 387.832C465.493 354.861 448.367 314.576 448.367 265.727C448.367 242.518 452.038 221.766 460.6 201.017C469.172 180.242 480.183 161.935 494.848 147.3L494.854 147.293L494.861 147.286C510.761 130.198 529.108 117.99 548.684 109.443C568.238 100.906 590.252 97.2393 614.744 97.2393C638.01 97.2393 658.786 100.906 675.872 109.432L675.886 109.439L675.899 109.444C692.974 116.747 706.402 128.922 717.404 144.782ZM620.879 362.966C645.573 362.966 666.554 353.102 685.038 334.656C703.54 316.191 712.18 294.021 712.18 269.401C712.18 242.336 703.543 220.171 685.049 200.484C666.55 180.791 645.559 172.161 620.879 172.161C594.989 172.161 572.775 180.779 554.272 199.241C535.767 216.48 525.897 238.654 525.897 265.727C525.897 292.782 534.528 316.182 553.039 334.656C571.534 353.113 593.746 362.966 620.879 362.966Z" stroke="white" stroke-opacity="0.2"/>
<path d="M1494.13 169.286L1494.13 169.296L1494.14 169.306C1505.13 182.71 1512.47 198.563 1517.36 215.659C1522.25 232.747 1524.7 253.516 1524.7 275.524V275.532V275.539V275.546V275.554V275.561V275.568V275.576V275.584V275.591V275.599V275.607V275.614V275.622V275.63V275.638V275.646V275.654V275.663V275.671V275.679V275.687V275.696V275.704V275.712V275.721V275.73V275.738V275.747V275.756V275.764V275.773V275.782V275.791V275.8V275.809V275.818V275.827V275.837V275.846V275.855V275.864V275.874V275.883V275.893V275.902V275.912V275.922V275.931V275.941V275.951V275.961V275.971V275.981V275.991V276.001V276.011V276.021V276.031V276.042V276.052V276.062V276.073V276.083V276.094V276.104V276.115V276.125V276.136V276.147V276.158V276.169V276.179V276.19V276.201V276.212V276.224V276.235V276.246V276.257V276.268V276.28V276.291V276.303V276.314V276.326V276.337V276.349V276.36V276.372V276.384V276.396V276.408V276.419V276.431V276.443V276.455V276.467V276.48V276.492V276.504V276.516V276.528V276.541V276.553V276.566V276.578V276.591V276.603V276.616V276.628V276.641V276.654V276.667V276.68V276.692V276.705V276.718V276.731V276.744V276.757V276.771V276.784V276.797V276.81V276.824V276.837V276.85V276.864V276.877V276.891V276.904V276.918V276.932V276.945V276.959V276.973V276.987V277V277.014V277.028V277.042V277.056V277.07V277.084V277.098V277.113V277.127V277.141V277.155V277.17V277.184V277.198V277.213V277.227V277.242V277.257V277.271V277.286V277.3V277.315V277.33V277.345V277.36V277.374V277.389V277.404V277.419V277.434V277.449V277.465V277.48V277.495V277.51V277.525V277.541V277.556V277.571V277.587V277.602V277.618V277.633V277.649V277.664V277.68V277.695V277.711V277.727V277.743V277.758V277.774V277.79V277.806V277.822V277.838V277.854V277.87V277.886V277.902V277.918V277.935V277.951V277.967V277.983V278V278.016V278.032V278.049V278.065V278.082V278.098V278.115V278.131V278.148V278.165V278.181V278.198V278.215V278.232V278.248V278.265V278.282V278.299V278.316V278.333V278.35V278.367V278.384V278.401V278.418V278.435V278.452V278.47V278.487V278.504V278.522V278.539V278.556V278.574V278.591V278.609V278.626V278.644V278.661V278.679V278.696V278.714V278.732V278.749V278.767V278.785V278.803V278.82V278.838V278.856V278.874V278.892V278.91V278.928V278.946V278.964V278.982V279V279.018V279.036V279.054V279.073V279.091V279.109V279.127V279.146V279.164V279.182V279.201V279.219V279.238V279.256V279.275V279.293V279.312V279.33V279.349V279.367V279.386V279.405V279.423V279.442V279.461V279.48V279.498V279.517V279.536V279.555V279.574V279.593V279.612V279.631V279.65V279.669V279.688V279.707V279.726V279.745V279.764V279.783V279.802V279.822V279.841V279.86V279.879V279.899V279.918V279.937V279.956V279.976V279.995V280.015V280.034V280.054V280.073V280.093V280.112V280.132V280.151V280.171V280.19V280.21V280.23V280.249V280.269V280.289V280.308V280.328V280.348V280.368V280.387V280.407V280.427V280.447V280.467V280.487V280.507V280.527V280.547V280.567V280.587V280.607V280.627V280.647V280.667V280.687V280.707V280.727V280.747V280.767V280.787V280.808V280.828V280.848V280.868V280.888V280.909V280.929V280.949V280.97V280.99V281.01V281.031V281.051V281.071V281.092V281.112V281.133V281.153V281.174V281.194V281.215V281.235V281.256V281.276V281.297V281.317V281.338V281.359V281.379V281.4V281.421V281.441V281.462V281.483V281.503V281.524V281.545V281.565V281.586V281.607V281.628V281.649V281.669V281.69V281.711V281.732V281.753V281.774V281.794V281.815V281.836V281.857V281.878V281.899V281.92V281.941V281.962V281.983V282.004V282.025V282.046V282.067V282.088V282.109V282.13V282.151V282.172V282.193V282.214V282.236V282.257V282.278V282.299V282.32V282.341V282.362V282.384V282.405V282.426V282.447V282.468V282.49V282.511V282.532V282.553V282.574V282.596V282.617V282.638V282.66V282.681V282.702V282.723V282.745V282.766V282.787V282.809V282.83V282.851V282.873V282.894V282.915V282.937V282.958V282.979V283.001V283.022V283.044V283.065V283.086V283.108V283.129V283.151V283.172V283.194V283.215V283.236V283.258V283.279V283.301V283.322V283.344V283.365V283.387V283.408V283.43V283.451V283.472V283.494V283.515V283.537V283.558V283.58V283.601V283.623V283.644V283.666V283.687V283.709V283.73V283.752V283.773V283.795V283.816V283.838V283.859V283.881V283.903V283.924V283.946V283.967V283.989V284.01V284.032V284.053V284.075V284.096V284.118V284.139V284.161V284.182V284.204V284.225V284.246V284.268V284.289V284.31V284.331V284.353V284.374V284.395V284.416V284.437V284.458V284.479V284.5V284.521V284.542V284.563V284.584V284.605V284.626V284.647V284.667V284.688V284.709V284.73V284.75V284.771V284.792V284.812V284.833V284.853V284.874V284.894V284.915V284.935V284.956V284.976V284.997V285.017V285.037V285.058V285.078V285.098V285.118V285.139V285.159V285.179V285.199V285.219V285.239V285.259V285.279V285.299V285.319V285.339V285.359V285.379V285.399V285.419V285.439V285.458V285.478V285.498V285.518V285.537V285.557V285.577V285.596V285.616V285.636V285.655V285.675V285.694V285.714V285.733V285.753V285.772V285.792V285.811V285.83V285.85V285.869V285.888V285.907V285.927V285.946V285.965V285.984V286.003V286.022V286.042V286.061V286.08V286.099V286.118V286.137V286.156V286.175V286.194V286.212V286.231V286.25V286.269V286.288V286.307V286.325V286.344V286.363V286.382V286.4V286.419V286.437V286.456V286.475V286.493V286.512V286.53V286.549V286.567V286.586V286.604V286.623V286.641V286.659V286.678V286.696V286.714V286.733V286.751V286.769V286.787V286.806V286.824V286.842V286.86V286.878V286.896V286.914V286.933V286.951V286.969V286.987V287.005V287.023V287.04V287.058V287.076V287.094V287.112V287.13V287.148V287.166V287.183V287.201V287.219V287.237V287.254V287.272V287.29V287.307V287.325V287.343V287.36V287.378V287.395V287.413V287.43V287.448V287.465V287.483V287.5V287.518V287.535V287.553V287.57V287.587V287.605V287.622V287.639V287.657V287.674V287.691V287.708V287.726V287.743V287.76V287.777V287.794V287.811V287.828V287.846V287.863V287.88V287.897V287.914V287.931V287.948V287.965V287.982V287.999V288.016V288.032V288.049V288.066V288.083V288.1V288.117V288.133V288.15V288.167V288.184V288.201V288.217V288.234V288.251V288.267V288.284V288.301V288.317V288.334V288.35V288.367V288.384V288.4V288.417V288.433V288.45V288.466V288.483V288.499V288.516V288.532V288.548V288.565V288.581V288.598V288.614V288.63V288.647V288.663V288.679V288.695V288.712V288.728V288.744V288.76V288.777V288.793V288.809V288.825V288.841V288.857V288.874V288.89V288.906V288.922V288.938V288.954V288.97V288.986V289.002V289.018V289.034V289.05V289.066V289.082V289.098V289.114V289.13V289.146V289.161V289.177V289.193V289.209V289.225V289.241V289.257V289.272V289.288V289.304V289.32V289.335V289.351V289.367V289.383V289.398V289.414V289.43V289.445V289.461V289.476V289.492V289.508V289.523V289.539V289.554V289.57V289.586V289.601V289.617V289.632V289.648V289.663V289.679V289.694V289.71V289.725V289.74V289.756V289.771V289.787V289.802V289.818V289.833V289.848V289.864V289.879V289.894V289.91V289.925V289.94V289.956V289.971V289.986V290.001V290.017V290.032V290.047V290.062V290.077V290.093V290.108V290.123V290.138V290.153V290.169V290.184V290.199V290.214V290.229V290.244V290.259V290.274V290.289V290.305V290.32V290.335V290.35V290.365V290.38V290.395V290.41V290.425V290.44V290.455V290.47V290.485V290.5V290.515V290.53V290.545V290.559V290.574V290.589V290.604V290.619V290.634V290.649V290.664V290.679V290.693V290.708V290.723V290.738V290.753V290.768V290.783V290.797V290.812V290.827V290.842V290.856V290.871V290.886V290.901V290.916V290.93V290.945V290.96V290.974V290.989V291.004V291.019V291.033V291.048V291.063V291.077V291.092V291.107V291.121V291.136V291.151V291.165V291.18V291.195V291.209V291.224V291.239V291.253V291.268V291.282V291.297V291.312V291.326V291.341V291.355V291.37V291.384V291.399V291.414V291.428V291.443V291.457V291.472V291.486V291.501V291.515V291.53V291.544V291.559V291.573V291.588V291.602V291.617V291.631V291.646V291.66V291.675V291.689V291.704V291.718V291.733V291.747V291.762V291.776V291.791V291.805V291.82V291.834V291.848V291.863V291.877V291.892V291.906V291.921V291.935V291.949V291.964V291.978V291.993V292.007V292.021V292.036V292.05V292.065V292.079V292.093V292.108V292.122V292.137V292.151V292.165V292.168H1262.86H1262.3L1262.37 292.727C1265.08 315.497 1274.71 333.617 1290.52 346.93C1306.57 360.488 1327.55 367.866 1353.42 367.866C1370.67 367.866 1385.48 364.174 1399.06 356.784C1412.53 349.451 1423.59 339.678 1431 327.455H1512.21C1498.73 362.568 1478.02 390.412 1450.07 409.814C1421.93 429.347 1390.13 439.114 1354.65 439.114C1330.18 439.114 1308.15 434.23 1287.35 425.681C1266.55 417.135 1248.21 404.93 1232.31 387.842L1232.3 387.836L1232.3 387.829C1216.4 371.967 1205.39 353.659 1196.82 332.888C1188.26 312.139 1184.59 290.164 1184.59 268.177C1184.59 244.965 1188.26 224.219 1196.82 204.701L1196.82 204.689L1196.83 204.676C1204.16 185.159 1216.39 166.848 1231.08 150.967C1248.22 133.862 1266.57 120.43 1287.37 110.663C1308.17 100.897 1330.18 96.0156 1352.19 96.0156C1380.34 96.0156 1407.25 102.122 1431.71 115.547L1431.72 115.551L1431.73 115.556C1456.19 127.762 1476.99 146.074 1494.13 169.286ZM1265.81 230.095L1265.66 230.716H1266.3H1442.5H1443.17L1442.98 230.078C1436.82 208.671 1425.84 192.906 1410.17 180.838L1410.16 180.83L1410.15 180.823C1394.11 169.742 1375.6 163.59 1352.19 163.59C1332.45 163.59 1313.94 169.749 1297.9 182.062C1281.86 194.371 1270.75 210.384 1265.81 230.095Z" stroke="white" stroke-opacity="0.2"/>
<path d="M1022.03 429.326L1022.02 429.326C929.027 447.643 837.281 387.803 821.38 296.257C805.474 199.79 869.094 111.894 965.738 99.6846C996.328 96.0215 1025.68 99.6844 1053.81 111.887C1057.51 113.731 1060.71 114.714 1063.79 114.066C1066.88 113.416 1069.74 111.154 1072.83 106.831C1076.5 101.952 1080.47 97.3741 1084.62 92.629L1085.06 92.1181C1088.97 87.6452 1093.01 83.0117 1097.06 77.8438C1102.79 82.217 1108.34 86.4058 1113.78 90.5127C1127.86 101.145 1141.21 111.228 1155.18 122.54C1149.76 129.743 1144.33 136.657 1138.91 143.576L1138.91 143.577C1133.39 150.617 1127.86 157.662 1122.34 165.014L1122.12 165.3L1122.32 165.596C1140.69 192.475 1151.7 220.557 1154.14 252.295L1154.14 252.301C1161.48 335.321 1103.98 413.456 1022.03 429.326ZM894.009 265.715L894.009 265.715V265.727C894.009 317.418 934.709 360.517 986.537 360.517C1038.34 360.517 1081.52 317.439 1081.52 266.952C1081.52 215.25 1040.81 173.392 989.002 172.161L989.002 172.161H988.991C937.182 172.161 895.242 212.79 894.009 265.715Z" stroke="white" stroke-opacity="0.2"/>
<path d="M1547.79 393.081C1547.79 367.03 1569.04 345.823 1595.15 345.823C1621.25 345.823 1642.5 367.03 1642.5 393.081C1642.5 419.131 1621.25 440.338 1595.15 440.338C1569.04 440.338 1547.79 419.131 1547.79 393.081Z" stroke="white" stroke-opacity="0.2"/>
</g>
</svg>
