<svg width="341" height="262" viewBox="0 0 341 262" fill="none" xmlns="http://www.w3.org/2000/svg">
<g style="mix-blend-mode:lighten" opacity="0.4">
<mask id="path-1-outside-1_35_589" maskUnits="userSpaceOnUse" x="-3" y="-3" width="347" height="268" fill="black">
<rect fill="white" x="-3" y="-3" width="347" height="268"/>
<path d="M112.296 261.331C88.9556 261.331 68.9841 255.917 52.3813 245.089C35.7785 234.021 22.9053 218.741 13.7617 199.251C4.85874 179.52 0.407262 156.661 0.407262 130.674C0.407262 104.928 4.85874 82.1892 13.7617 62.4583C22.9053 42.7274 35.7785 27.448 52.3813 16.6201C68.9841 5.55153 88.9556 0.0172541 112.296 0.0172541C135.636 0.0172541 155.608 5.55153 172.21 16.6201C188.813 27.448 201.566 42.7274 210.469 62.4583C219.613 82.1892 224.184 104.928 224.184 130.674C224.184 156.661 219.613 179.52 210.469 199.251C201.566 218.741 188.813 234.021 172.21 245.089C155.608 255.917 135.636 261.331 112.296 261.331ZM112.296 219.824C131.305 219.824 146.825 211.884 158.856 196.003C170.887 180.122 176.902 158.346 176.902 130.674C176.902 103.003 170.887 81.2267 158.856 65.3457C146.825 49.4648 131.305 41.5243 112.296 41.5243C93.0462 41.5243 77.4058 49.4648 65.3748 65.3457C53.5844 81.2267 47.6892 103.003 47.6892 130.674C47.6892 158.346 53.5844 180.122 65.3748 196.003C77.4058 211.884 93.0462 219.824 112.296 219.824ZM292.386 257V57.0443L250.879 66.7895V31.4182L311.876 4.34841H340.39V257H292.386Z"/>
</mask>
<path d="M52.3813 245.089L50.8172 247.435L50.829 247.443L50.841 247.451L52.3813 245.089ZM13.7617 199.251L11.1915 200.411L11.2 200.43L11.2089 200.449L13.7617 199.251ZM13.7617 62.4583L11.2033 61.2727L11.1973 61.2856L11.1915 61.2985L13.7617 62.4583ZM52.3813 16.6201L53.9217 18.9819L53.9336 18.9742L53.9454 18.9663L52.3813 16.6201ZM172.21 16.6201L170.646 18.9663L170.658 18.9742L170.67 18.9819L172.21 16.6201ZM210.469 62.4583L207.899 63.618L207.905 63.631L207.911 63.6439L210.469 62.4583ZM210.469 199.251L207.911 198.065L207.907 198.072L207.904 198.079L210.469 199.251ZM172.21 245.089L173.751 247.451L173.763 247.443L173.774 247.435L172.21 245.089ZM158.856 196.003L156.608 194.3L156.608 194.3L158.856 196.003ZM65.3748 65.3457L63.1272 63.643L63.1189 63.6539L63.1108 63.6649L65.3748 65.3457ZM65.3748 196.003L63.1108 197.684L63.1189 197.695L63.1272 197.705L65.3748 196.003ZM112.296 258.511C89.4037 258.511 69.99 253.207 53.9217 242.727L50.841 247.451C67.9783 258.628 88.5075 264.151 112.296 264.151V258.511ZM53.9454 242.743C37.8045 231.982 25.2574 217.116 16.3145 198.053L11.2089 200.449C20.5532 220.367 33.7524 236.059 50.8172 247.435L53.9454 242.743ZM16.3319 198.091C7.62305 178.791 3.22703 156.34 3.22703 130.674H-2.41251C-2.41251 156.982 2.09444 180.25 11.1915 200.411L16.3319 198.091ZM3.22703 130.674C3.22703 105.253 7.62162 82.922 16.3319 63.618L11.1915 61.2985C2.09587 81.4564 -2.41251 104.603 -2.41251 130.674H3.22703ZM16.3201 63.6439C25.2637 44.3445 37.8043 29.4933 53.9217 18.9819L50.841 14.2582C33.7527 25.4027 20.5469 41.1102 11.2033 61.2727L16.3201 63.6439ZM53.9454 18.9663C70.0107 8.25609 89.4157 2.83703 112.296 2.83703V-2.80252C88.4956 -2.80252 67.9575 2.84697 50.8172 14.2739L53.9454 18.9663ZM112.296 2.83703C135.176 2.83703 154.581 8.25609 170.646 18.9663L173.774 14.2739C156.634 2.84697 136.096 -2.80252 112.296 -2.80252V2.83703ZM170.67 18.9819C186.78 29.4888 199.196 44.331 207.899 63.618L213.039 61.2985C203.936 41.1238 190.846 25.4072 173.751 14.2582L170.67 18.9819ZM207.911 63.6439C216.853 82.9411 221.365 105.263 221.365 130.674H227.004C227.004 104.593 222.372 81.4372 213.027 61.2727L207.911 63.6439ZM221.365 130.674C221.365 156.33 216.852 178.771 207.911 198.065L213.027 200.437C222.373 180.269 227.004 156.992 227.004 130.674H221.365ZM207.904 198.079C199.202 217.129 186.78 231.987 170.646 242.743L173.774 247.435C190.846 236.054 203.93 220.353 213.034 200.423L207.904 198.079ZM170.67 242.727C154.602 253.207 135.188 258.511 112.296 258.511V264.151C136.084 264.151 156.613 258.628 173.751 247.451L170.67 242.727ZM112.296 222.644C132.236 222.644 148.569 214.25 161.104 197.705L156.608 194.3C145.08 209.517 130.374 217.004 112.296 217.004V222.644ZM161.104 197.705C173.626 181.176 179.722 158.726 179.722 130.674H174.083C174.083 157.965 168.148 179.068 156.608 194.3L161.104 197.705ZM179.722 130.674C179.722 102.622 173.626 80.1726 161.104 63.643L156.608 67.0485C168.148 82.2808 174.083 103.383 174.083 130.674H179.722ZM161.104 63.643C148.569 47.0979 132.236 38.7045 112.296 38.7045V44.3441C130.374 44.3441 145.08 51.8316 156.608 67.0485L161.104 63.643ZM112.296 38.7045C92.1278 38.7045 75.6694 47.0873 63.1272 63.643L67.6224 67.0485C79.1423 51.8423 93.9645 44.3441 112.296 44.3441V38.7045ZM63.1108 63.6649C50.8407 80.192 44.8694 102.633 44.8694 130.674H50.509C50.509 103.373 56.3282 82.2614 67.6388 67.0266L63.1108 63.6649ZM44.8694 130.674C44.8694 158.715 50.8407 181.156 63.1108 197.684L67.6388 194.322C56.3282 179.087 50.509 157.976 50.509 130.674H44.8694ZM63.1272 197.705C75.6694 214.261 92.1278 222.644 112.296 222.644V217.004C93.9645 217.004 79.1423 209.506 67.6224 194.3L63.1272 197.705ZM292.386 257H289.566V259.82H292.386V257ZM292.386 57.0443H295.206V53.4858L291.742 54.2992L292.386 57.0443ZM250.879 66.7895H248.059V70.3479L251.524 69.5346L250.879 66.7895ZM250.879 31.4182L249.735 28.8409L248.059 29.5846V31.4182H250.879ZM311.876 4.34841V1.52864H311.279L310.733 1.77104L311.876 4.34841ZM340.39 4.34841H343.21V1.52864H340.39V4.34841ZM340.39 257V259.82H343.21V257H340.39ZM295.206 257V57.0443H289.566V257H295.206ZM291.742 54.2992L250.235 64.0443L251.524 69.5346L293.031 59.7894L291.742 54.2992ZM253.699 66.7895V31.4182H248.059V66.7895H253.699ZM252.023 33.9956L313.02 6.92578L310.733 1.77104L249.735 28.8409L252.023 33.9956ZM311.876 7.16818H340.39V1.52864H311.876V7.16818ZM337.57 4.34841V257H343.21V4.34841H337.57ZM340.39 254.18H292.386V259.82H340.39V254.18Z" fill="white" mask="url(#path-1-outside-1_35_589)"/>
</g>
</svg>
