<svg width="33" height="33" viewBox="0 0 33 33" xmlns="http://www.w3.org/2000/svg">
<mask id="mask0_3_32" style="mask-type:alpha" maskUnits="userSpaceOnUse" x="0" y="0" width="33" height="33">
<rect width="33" height="33" />
</mask>
<g mask="url(#mask0_3_32)">
<path d="M29.7 31.625L25.4719 27.4313C25.0594 27.6833 24.6182 27.8724 24.1484 27.9984C23.6786 28.1245 23.1917 28.1875 22.6875 28.1875C21.175 28.1875 19.8802 27.649 18.8031 26.5719C17.726 25.4948 17.1875 24.2 17.1875 22.6875C17.1875 21.175 17.726 19.8802 18.8031 18.8031C19.8802 17.726 21.175 17.1875 22.6875 17.1875C24.2 17.1875 25.4948 17.726 26.5719 18.8031C27.649 19.8802 28.1875 21.175 28.1875 22.6875C28.1875 23.2146 28.1187 23.713 27.9813 24.1828C27.8438 24.6526 27.649 25.0938 27.3969 25.5063L31.625 29.7L29.7 31.625ZM7.5625 28.1875C6.05 28.1875 4.75521 27.649 3.67813 26.5719C2.60104 25.4948 2.0625 24.2 2.0625 22.6875C2.0625 21.175 2.60104 19.8802 3.67813 18.8031C4.75521 17.726 6.05 17.1875 7.5625 17.1875C9.075 17.1875 10.3698 17.726 11.4469 18.8031C12.524 19.8802 13.0625 21.175 13.0625 22.6875C13.0625 24.2 12.524 25.4948 11.4469 26.5719C10.3698 27.649 9.075 28.1875 7.5625 28.1875ZM7.5625 25.4375C8.31875 25.4375 8.96615 25.1682 9.50469 24.6297C10.0432 24.0911 10.3125 23.4438 10.3125 22.6875C10.3125 21.9312 10.0432 21.2839 9.50469 20.7453C8.96615 20.2068 8.31875 19.9375 7.5625 19.9375C6.80625 19.9375 6.15885 20.2068 5.62031 20.7453C5.08177 21.2839 4.8125 21.9312 4.8125 22.6875C4.8125 23.4438 5.08177 24.0911 5.62031 24.6297C6.15885 25.1682 6.80625 25.4375 7.5625 25.4375ZM22.6875 25.4375C23.4438 25.4375 24.0911 25.1682 24.6297 24.6297C25.1682 24.0911 25.4375 23.4438 25.4375 22.6875C25.4375 21.9312 25.1682 21.2839 24.6297 20.7453C24.0911 20.2068 23.4438 19.9375 22.6875 19.9375C21.9312 19.9375 21.2839 20.2068 20.7453 20.7453C20.2068 21.2839 19.9375 21.9312 19.9375 22.6875C19.9375 23.4438 20.2068 24.0911 20.7453 24.6297C21.2839 25.1682 21.9312 25.4375 22.6875 25.4375ZM7.5625 13.0625C6.05 13.0625 4.75521 12.524 3.67813 11.4469C2.60104 10.3698 2.0625 9.075 2.0625 7.5625C2.0625 6.05 2.60104 4.75521 3.67813 3.67813C4.75521 2.60104 6.05 2.0625 7.5625 2.0625C9.075 2.0625 10.3698 2.60104 11.4469 3.67813C12.524 4.75521 13.0625 6.05 13.0625 7.5625C13.0625 9.075 12.524 10.3698 11.4469 11.4469C10.3698 12.524 9.075 13.0625 7.5625 13.0625ZM22.6875 13.0625C21.175 13.0625 19.8802 12.524 18.8031 11.4469C17.726 10.3698 17.1875 9.075 17.1875 7.5625C17.1875 6.05 17.726 4.75521 18.8031 3.67813C19.8802 2.60104 21.175 2.0625 22.6875 2.0625C24.2 2.0625 25.4948 2.60104 26.5719 3.67813C27.649 4.75521 28.1875 6.05 28.1875 7.5625C28.1875 9.075 27.649 10.3698 26.5719 11.4469C25.4948 12.524 24.2 13.0625 22.6875 13.0625ZM7.5625 10.3125C8.31875 10.3125 8.96615 10.0432 9.50469 9.50469C10.0432 8.96615 10.3125 8.31875 10.3125 7.5625C10.3125 6.80625 10.0432 6.15885 9.50469 5.62031C8.96615 5.08177 8.31875 4.8125 7.5625 4.8125C6.80625 4.8125 6.15885 5.08177 5.62031 5.62031C5.08177 6.15885 4.8125 6.80625 4.8125 7.5625C4.8125 8.31875 5.08177 8.96615 5.62031 9.50469C6.15885 10.0432 6.80625 10.3125 7.5625 10.3125ZM22.6875 10.3125C23.4438 10.3125 24.0911 10.0432 24.6297 9.50469C25.1682 8.96615 25.4375 8.31875 25.4375 7.5625C25.4375 6.80625 25.1682 6.15885 24.6297 5.62031C24.0911 5.08177 23.4438 4.8125 22.6875 4.8125C21.9312 4.8125 21.2839 5.08177 20.7453 5.62031C20.2068 6.15885 19.9375 6.80625 19.9375 7.5625C19.9375 8.31875 20.2068 8.96615 20.7453 9.50469C21.2839 10.0432 21.9312 10.3125 22.6875 10.3125Z" />
</g>
</svg>
