<svg width="57" height="57" viewBox="0 0 57 57" fill="none" xmlns="http://www.w3.org/2000/svg">
<mask id="mask0_35_406" style="mask-type:alpha" maskUnits="userSpaceOnUse" x="0" y="0" width="57" height="57">
<rect width="56.4282" height="56.4282" fill="#D9D9D9"/>
</mask>
<g mask="url(#mask0_35_406)">
<path d="M28.2139 37.6186L37.6186 28.2139L28.2139 18.8092L24.9223 22.1008L28.6841 25.8627H18.8092V30.5651H28.6841L24.9223 34.327L28.2139 37.6186ZM28.2139 51.7257C24.9614 51.7257 21.9049 51.1085 19.0443 49.8741C16.1837 48.6397 13.6954 46.9645 11.5793 44.8485C9.46328 42.7324 7.78807 40.2441 6.5537 37.3835C5.31933 34.5229 4.70215 31.4664 4.70215 28.2139C4.70215 24.9614 5.31933 21.9049 6.5537 19.0443C7.78807 16.1837 9.46328 13.6954 11.5793 11.5793C13.6954 9.46328 16.1837 7.78807 19.0443 6.5537C21.9049 5.31933 24.9614 4.70215 28.2139 4.70215C31.4664 4.70215 34.5229 5.31933 37.3835 6.5537C40.2441 7.78807 42.7324 9.46328 44.8485 11.5793C46.9645 13.6954 48.6397 16.1837 49.8741 19.0443C51.1085 21.9049 51.7257 24.9614 51.7257 28.2139C51.7257 31.4664 51.1085 34.5229 49.8741 37.3835C48.6397 40.2441 46.9645 42.7324 44.8485 44.8485C42.7324 46.9645 40.2441 48.6397 37.3835 49.8741C34.5229 51.1085 31.4664 51.7257 28.2139 51.7257ZM28.2139 47.0233C33.4649 47.0233 37.9125 45.2012 41.5568 41.5568C45.2012 37.9125 47.0233 33.4649 47.0233 28.2139C47.0233 22.9629 45.2012 18.5153 41.5568 14.871C37.9125 11.2267 33.4649 9.4045 28.2139 9.4045C22.9629 9.4045 18.5153 11.2267 14.871 14.871C11.2267 18.5153 9.4045 22.9629 9.4045 28.2139C9.4045 33.4649 11.2267 37.9125 14.871 41.5568C18.5153 45.2012 22.9629 47.0233 28.2139 47.0233Z" fill="black"/>
</g>
</svg>
