<svg width="63" height="63" viewBox="0 0 63 63" fill="none" xmlns="http://www.w3.org/2000/svg">
<mask id="mask0_35_554" style="mask-type:alpha" maskUnits="userSpaceOnUse" x="0" y="0" width="63" height="63">
<rect width="62.4291" height="62.4291" fill="#D9D9D9"/>
</mask>
<g mask="url(#mask0_35_554)">
<path d="M31.2143 41.6191L41.6191 31.2143L31.2143 20.8094L27.5726 24.4511L31.7345 28.6131H20.8094V33.8155H31.7345L27.5726 37.9774L31.2143 41.6191ZM31.2143 57.2264C27.6159 57.2264 24.2344 56.5436 21.0695 55.178C17.9047 53.8123 15.1518 51.959 12.8107 49.6179C10.4696 47.2768 8.61624 44.5238 7.2506 41.359C5.88497 38.1942 5.20215 34.8126 5.20215 31.2143C5.20215 27.6159 5.88497 24.2344 7.2506 21.0695C8.61624 17.9047 10.4696 15.1518 12.8107 12.8107C15.1518 10.4696 17.9047 8.61624 21.0695 7.2506C24.2344 5.88497 27.6159 5.20215 31.2143 5.20215C34.8126 5.20215 38.1942 5.88497 41.359 7.2506C44.5238 8.61624 47.2768 10.4696 49.6179 12.8107C51.959 15.1518 53.8123 17.9047 55.178 21.0695C56.5436 24.2344 57.2264 27.6159 57.2264 31.2143C57.2264 34.8126 56.5436 38.1942 55.178 41.359C53.8123 44.5238 51.959 47.2768 49.6179 49.6179C47.2768 51.959 44.5238 53.8123 41.359 55.178C38.1942 56.5436 34.8126 57.2264 31.2143 57.2264ZM31.2143 52.024C37.0237 52.024 41.9443 50.008 45.9762 45.9762C50.008 41.9443 52.024 37.0237 52.024 31.2143C52.024 25.4049 50.008 20.4843 45.9762 16.4524C41.9443 12.4205 37.0237 10.4046 31.2143 10.4046C25.4049 10.4046 20.4843 12.4205 16.4524 16.4524C12.4205 20.4843 10.4046 25.4049 10.4046 31.2143C10.4046 37.0237 12.4205 41.9443 16.4524 45.9762C20.4843 50.008 25.4049 52.024 31.2143 52.024Z" fill="#EDB747"/>
</g>
</svg>
