<svg width="45" height="46" viewBox="0 0 45 46" fill="none" xmlns="http://www.w3.org/2000/svg">
<mask id="mask0_35_536" style="mask-type:alpha" maskUnits="userSpaceOnUse" x="0" y="0" width="45" height="46">
<rect y="0.896484" width="44.4291" height="44.4291" fill="#D9D9D9"/>
</mask>
<g mask="url(#mask0_35_536)">
<path d="M22.2143 30.5156L29.6191 23.1108L22.2143 15.7059L19.6226 18.2976L22.5845 21.2596H14.8094V24.962H22.5845L19.6226 27.9239L22.2143 30.5156ZM22.2143 41.6229C19.6534 41.6229 17.2469 41.137 14.9945 40.1651C12.7422 39.1932 10.783 37.8742 9.11695 36.2081C7.45086 34.542 6.13187 32.5828 5.15998 30.3305C4.18809 28.0782 3.70215 25.6716 3.70215 23.1108C3.70215 20.5499 4.18809 18.1433 5.15998 15.891C6.13187 13.6387 7.45086 11.6795 9.11695 10.0134C10.783 8.34734 12.7422 7.02835 14.9945 6.05646C17.2469 5.08458 19.6534 4.59863 22.2143 4.59863C24.7751 4.59863 27.1817 5.08458 29.434 6.05646C31.6863 7.02835 33.6455 8.34734 35.3116 10.0134C36.9777 11.6795 38.2967 13.6387 39.2686 15.891C40.2405 18.1433 40.7264 20.5499 40.7264 23.1108C40.7264 25.6716 40.2405 28.0782 39.2686 30.3305C38.2967 32.5828 36.9777 34.542 35.3116 36.2081C33.6455 37.8742 31.6863 39.1932 29.434 40.1651C27.1817 41.137 24.7751 41.6229 22.2143 41.6229ZM22.2143 37.9205C26.3487 37.9205 29.8505 36.4858 32.7199 33.6164C35.5893 30.747 37.024 27.2451 37.024 23.1108C37.024 18.9764 35.5893 15.4745 32.7199 12.6051C29.8505 9.73575 26.3487 8.30106 22.2143 8.30106C18.0799 8.30106 14.578 9.73575 11.7086 12.6051C8.83927 15.4745 7.40457 18.9764 7.40457 23.1108C7.40457 27.2451 8.83927 30.747 11.7086 33.6164C14.578 36.4858 18.0799 37.9205 22.2143 37.9205Z" fill="white"/>
</g>
</svg>
