<svg width="25" height="25" viewBox="0 0 25 25" fill="none" xmlns="http://www.w3.org/2000/svg">
<mask id="mask0_54_379" style="mask-type:alpha" maskUnits="userSpaceOnUse" x="0" y="0" width="25" height="25">
<rect width="25" height="25" fill="#D9D9D9"/>
</mask>
<g mask="url(#mask0_54_379)">
<path d="M8.30697 17.7085L12.4997 15.8075L16.6924 17.7085L17.083 17.3179L12.4997 6.25016L7.91634 17.3179L8.30697 17.7085ZM12.4997 22.9168C11.0587 22.9168 9.70454 22.6434 8.43717 22.0965C7.16981 21.5496 6.06738 20.8075 5.12988 19.87C4.19238 18.9325 3.4502 17.83 2.90332 16.5627C2.35645 15.2953 2.08301 13.9411 2.08301 12.5002C2.08301 11.0592 2.35645 9.70502 2.90332 8.43766C3.4502 7.1703 4.19238 6.06787 5.12988 5.13037C6.06738 4.19287 7.16981 3.45068 8.43717 2.90381C9.70454 2.35693 11.0587 2.0835 12.4997 2.0835C13.9406 2.0835 15.2948 2.35693 16.5622 2.90381C17.8295 3.45068 18.932 4.19287 19.8695 5.13037C20.807 6.06787 21.5492 7.1703 22.096 8.43766C22.6429 9.70502 22.9163 11.0592 22.9163 12.5002C22.9163 13.9411 22.6429 15.2953 22.096 16.5627C21.5492 17.83 20.807 18.9325 19.8695 19.87C18.932 20.8075 17.8295 21.5496 16.5622 22.0965C15.2948 22.6434 13.9406 22.9168 12.4997 22.9168ZM12.4997 20.8335C14.8261 20.8335 16.7966 20.0262 18.4111 18.4116C20.0257 16.797 20.833 14.8266 20.833 12.5002C20.833 10.1738 20.0257 8.20329 18.4111 6.58871C16.7966 4.97412 14.8261 4.16683 12.4997 4.16683C10.1733 4.16683 8.2028 4.97412 6.58822 6.58871C4.97363 8.20329 4.16634 10.1738 4.16634 12.5002C4.16634 14.8266 4.97363 16.797 6.58822 18.4116C8.2028 20.0262 10.1733 20.8335 12.4997 20.8335Z" fill="#677894"/>
</g>
</svg>
