<svg width="99" height="100" viewBox="0 0 99 100" fill="none" xmlns="http://www.w3.org/2000/svg">
<mask id="mask0_50_280" style="mask-type:alpha" maskUnits="userSpaceOnUse" x="0" y="0" width="99" height="100">
<rect y="0.680664" width="98.3376" height="98.3376" fill="#D9D9D9"/>
</mask>
<g mask="url(#mask0_50_280)">
<path d="M20.4865 90.8235C18.233 90.8235 16.3038 90.0211 14.699 88.4163C13.0941 86.8115 12.2917 84.8823 12.2917 82.6287V36.4305C11.0625 35.6793 10.0723 34.7062 9.32112 33.5111C8.56993 32.316 8.19434 30.9332 8.19434 29.3625V17.0703C8.19434 14.8167 8.99674 12.8875 10.6016 11.2827C12.2064 9.6779 14.1356 8.87549 16.3891 8.87549H81.9475C84.2011 8.87549 86.1303 9.6779 87.7351 11.2827C89.3399 12.8875 90.1423 14.8167 90.1423 17.0703V29.3625C90.1423 30.9332 89.7667 32.316 89.0156 33.5111C88.2644 34.7062 87.2742 35.6793 86.0449 36.4305V82.6287C86.0449 84.8823 85.2425 86.8115 83.6377 88.4163C82.0329 90.0211 80.1037 90.8235 77.8501 90.8235H20.4865ZM20.4865 37.5573V82.6287H77.8501V37.5573H20.4865ZM16.3891 29.3625H81.9475V17.0703H16.3891V29.3625ZM36.8761 58.0443H61.4605V49.8495H36.8761V58.0443Z" fill="#1329ED"/>
</g>
</svg>
