<svg width="34" height="34" viewBox="0 0 34 34" fill="none" xmlns="http://www.w3.org/2000/svg">
<mask id="mask0_104_1575" style="mask-type:alpha" maskUnits="userSpaceOnUse" x="0" y="0" width="34" height="34">
<rect width="34" height="34" fill="#D9D9D9"/>
</mask>
<g mask="url(#mask0_104_1575)">
<path d="M7.08333 31.1673C6.30417 31.1673 5.63715 30.8899 5.08229 30.335C4.52743 29.7802 4.25 29.1132 4.25 28.334V8.50065C4.25 7.72148 4.52743 7.05447 5.08229 6.49961C5.63715 5.94475 6.30417 5.66732 7.08333 5.66732H8.5V2.83398H11.3333V5.66732H22.6667V2.83398H25.5V5.66732H26.9167C27.6958 5.66732 28.3628 5.94475 28.9177 6.49961C29.4726 7.05447 29.75 7.72148 29.75 8.50065V28.334C29.75 29.1132 29.4726 29.7802 28.9177 30.335C28.3628 30.8899 27.6958 31.1673 26.9167 31.1673H7.08333ZM7.08333 28.334H26.9167V14.1673H7.08333V28.334ZM7.08333 11.334H26.9167V8.50065H7.08333V11.334ZM17 19.834C16.5986 19.834 16.2622 19.6982 15.9906 19.4267C15.7191 19.1552 15.5833 18.8187 15.5833 18.4173C15.5833 18.0159 15.7191 17.6795 15.9906 17.4079C16.2622 17.1364 16.5986 17.0007 17 17.0007C17.4014 17.0007 17.7378 17.1364 18.0094 17.4079C18.2809 17.6795 18.4167 18.0159 18.4167 18.4173C18.4167 18.8187 18.2809 19.1552 18.0094 19.4267C17.7378 19.6982 17.4014 19.834 17 19.834ZM11.3333 19.834C10.9319 19.834 10.5955 19.6982 10.324 19.4267C10.0524 19.1552 9.91667 18.8187 9.91667 18.4173C9.91667 18.0159 10.0524 17.6795 10.324 17.4079C10.5955 17.1364 10.9319 17.0007 11.3333 17.0007C11.7347 17.0007 12.0712 17.1364 12.3427 17.4079C12.6142 17.6795 12.75 18.0159 12.75 18.4173C12.75 18.8187 12.6142 19.1552 12.3427 19.4267C12.0712 19.6982 11.7347 19.834 11.3333 19.834ZM22.6667 19.834C22.2653 19.834 21.9288 19.6982 21.6573 19.4267C21.3858 19.1552 21.25 18.8187 21.25 18.4173C21.25 18.0159 21.3858 17.6795 21.6573 17.4079C21.9288 17.1364 22.2653 17.0007 22.6667 17.0007C23.0681 17.0007 23.4045 17.1364 23.676 17.4079C23.9476 17.6795 24.0833 18.0159 24.0833 18.4173C24.0833 18.8187 23.9476 19.1552 23.676 19.4267C23.4045 19.6982 23.0681 19.834 22.6667 19.834ZM17 25.5007C16.5986 25.5007 16.2622 25.3649 15.9906 25.0934C15.7191 24.8218 15.5833 24.4854 15.5833 24.084C15.5833 23.6826 15.7191 23.3461 15.9906 23.0746C16.2622 22.8031 16.5986 22.6673 17 22.6673C17.4014 22.6673 17.7378 22.8031 18.0094 23.0746C18.2809 23.3461 18.4167 23.6826 18.4167 24.084C18.4167 24.4854 18.2809 24.8218 18.0094 25.0934C17.7378 25.3649 17.4014 25.5007 17 25.5007ZM11.3333 25.5007C10.9319 25.5007 10.5955 25.3649 10.324 25.0934C10.0524 24.8218 9.91667 24.4854 9.91667 24.084C9.91667 23.6826 10.0524 23.3461 10.324 23.0746C10.5955 22.8031 10.9319 22.6673 11.3333 22.6673C11.7347 22.6673 12.0712 22.8031 12.3427 23.0746C12.6142 23.3461 12.75 23.6826 12.75 24.084C12.75 24.4854 12.6142 24.8218 12.3427 25.0934C12.0712 25.3649 11.7347 25.5007 11.3333 25.5007ZM22.6667 25.5007C22.2653 25.5007 21.9288 25.3649 21.6573 25.0934C21.3858 24.8218 21.25 24.4854 21.25 24.084C21.25 23.6826 21.3858 23.3461 21.6573 23.0746C21.9288 22.8031 22.2653 22.6673 22.6667 22.6673C23.0681 22.6673 23.4045 22.8031 23.676 23.0746C23.9476 23.3461 24.0833 23.6826 24.0833 24.084C24.0833 24.4854 23.9476 24.8218 23.676 25.0934C23.4045 25.3649 23.0681 25.5007 22.6667 25.5007Z" fill="#677894"/>
</g>
</svg>
