<svg width="24" height="25" viewBox="0 0 24 25" fill="none" xmlns="http://www.w3.org/2000/svg">
<mask id="mask0_99_1367" style="mask-type:alpha" maskUnits="userSpaceOnUse" x="0" y="0" width="24" height="25">
<rect y="0.191406" width="24" height="24" fill="#D9D9D9"/>
</mask>
<g mask="url(#mask0_99_1367)">
<path d="M19.95 21.1914C17.8667 21.1914 15.8083 20.7372 13.775 19.8289C11.7417 18.9206 9.89167 17.6331 8.225 15.9664C6.55833 14.2997 5.27083 12.4497 4.3625 10.4164C3.45417 8.38307 3 6.32474 3 4.24141C3 3.94141 3.1 3.69141 3.3 3.49141C3.5 3.29141 3.75 3.19141 4.05 3.19141H8.1C8.33333 3.19141 8.54167 3.27057 8.725 3.42891C8.90833 3.58724 9.01667 3.77474 9.05 3.99141L9.7 7.49141C9.73333 7.75807 9.725 7.98307 9.675 8.16641C9.625 8.34974 9.53333 8.50807 9.4 8.64141L6.975 11.0914C7.30833 11.7081 7.70417 12.3039 8.1625 12.8789C8.62083 13.4539 9.125 14.0081 9.675 14.5414C10.1917 15.0581 10.7333 15.5372 11.3 15.9789C11.8667 16.4206 12.4667 16.8247 13.1 17.1914L15.45 14.8414C15.6 14.6914 15.7958 14.5789 16.0375 14.5039C16.2792 14.4289 16.5167 14.4081 16.75 14.4414L20.2 15.1414C20.4333 15.2081 20.625 15.3289 20.775 15.5039C20.925 15.6789 21 15.8747 21 16.0914V20.1414C21 20.4414 20.9 20.6914 20.7 20.8914C20.5 21.0914 20.25 21.1914 19.95 21.1914ZM6.025 9.19141L7.675 7.54141L7.25 5.19141H5.025C5.10833 5.87474 5.225 6.54974 5.375 7.21641C5.525 7.88307 5.74167 8.54141 6.025 9.19141ZM14.975 18.1414C15.625 18.4247 16.2875 18.6497 16.9625 18.8164C17.6375 18.9831 18.3167 19.0914 19 19.1414V16.9414L16.65 16.4664L14.975 18.1414Z" fill="#1329ED"/>
</g>
</svg>
