<svg width="47" height="47" viewBox="0 0 47 47" fill="none" xmlns="http://www.w3.org/2000/svg">
<mask id="mask0_50_38" style="mask-type:alpha" maskUnits="userSpaceOnUse" x="0" y="0" width="47" height="47">
<rect width="47" height="47" fill="#D9D9D9"/>
</mask>
<g mask="url(#mask0_50_38)">
<path d="M15.7159 35.25H21.5909V33.2917H17.6743V31.3333H21.5909V25.4583H15.7159V27.4167H19.6326V29.375H15.7159V35.25ZM29.4243 35.25H31.3826V25.4583H29.4243V29.375H27.4659V25.4583H25.5076V31.3333H29.4243V35.25ZM41.1743 21.6396V37.2083C41.1743 38.2854 40.7908 39.2075 40.0238 39.9745C39.2567 40.7415 38.3347 41.125 37.2576 41.125H9.84094C8.76386 41.125 7.84181 40.7415 7.0748 39.9745C6.30779 39.2075 5.92428 38.2854 5.92428 37.2083V21.6396C5.17358 20.9542 4.59424 20.0729 4.18626 18.9958C3.77827 17.9188 3.77011 16.7438 4.16178 15.4708L6.21803 8.8125C6.47914 7.96389 6.94424 7.26215 7.61334 6.70729C8.28244 6.15243 9.05761 5.875 9.93886 5.875H37.1597C38.0409 5.875 38.808 6.14427 39.4607 6.68281C40.1135 7.22135 40.5868 7.93125 40.8805 8.8125L42.9368 15.4708C43.3284 16.7438 43.3203 17.9024 42.9123 18.9469C42.5043 19.9913 41.925 20.8889 41.1743 21.6396ZM27.8576 19.5833C28.7389 19.5833 29.408 19.2814 29.8649 18.6776C30.3218 18.0738 30.5014 17.3965 30.4034 16.6458L29.3264 9.79167H25.5076V17.0375C25.5076 17.7229 25.7361 18.3186 26.193 18.8245C26.65 19.3304 27.2048 19.5833 27.8576 19.5833ZM19.0451 19.5833C19.7958 19.5833 20.4078 19.3304 20.8811 18.8245C21.3543 18.3186 21.5909 17.7229 21.5909 17.0375V9.79167H17.7722L16.6951 16.6458C16.5646 17.4292 16.7359 18.1146 17.2092 18.7021C17.6824 19.2896 18.2944 19.5833 19.0451 19.5833ZM10.3305 19.5833C10.918 19.5833 11.4321 19.3712 11.8727 18.9469C12.3133 18.5226 12.5826 17.984 12.6805 17.3313L13.7576 9.79167H9.93886L7.98053 16.3521C7.7847 17.0049 7.89077 17.7066 8.29876 18.4573C8.70674 19.208 9.384 19.5833 10.3305 19.5833ZM36.768 19.5833C37.7146 19.5833 38.4 19.208 38.8243 18.4573C39.2486 17.7066 39.3465 17.0049 39.118 16.3521L37.0618 9.79167H33.3409L34.418 17.3313C34.5159 17.984 34.7852 18.5226 35.2258 18.9469C35.6665 19.3712 36.1805 19.5833 36.768 19.5833ZM9.84094 37.2083H37.2576V23.4021C37.0944 23.4674 36.9883 23.5 36.9394 23.5H36.768C35.8868 23.5 35.1116 23.3531 34.4425 23.0594C33.7734 22.7656 33.1125 22.2924 32.4597 21.6396C31.8722 22.2271 31.2031 22.684 30.4524 23.0104C29.7017 23.3368 28.9021 23.5 28.0534 23.5C27.1722 23.5 26.3481 23.3368 25.581 23.0104C24.814 22.684 24.1368 22.2271 23.5493 21.6396C22.9944 22.2271 22.3498 22.684 21.6154 23.0104C20.8811 23.3368 20.0896 23.5 19.2409 23.5C18.2944 23.5 17.4376 23.3368 16.6706 23.0104C15.9036 22.684 15.2264 22.2271 14.6389 21.6396C13.9534 22.325 13.2762 22.8064 12.6071 23.0839C11.938 23.3613 11.1791 23.5 10.3305 23.5H10.1102C10.0286 23.5 9.93886 23.4674 9.84094 23.4021V37.2083Z" fill="black"/>
</g>
</svg>
