<svg width="369" height="135" viewBox="0 0 369 135" fill="none" xmlns="http://www.w3.org/2000/svg">
<path d="M47.3995 57.7547C43.817 56.3796 39.4078 54.7295 33.8962 53.3544C29.7625 51.9793 26.7311 51.1542 24.5265 50.3292C22.5975 49.5041 20.6684 48.404 19.2905 47.0289C17.9126 45.6538 17.0859 44.0037 17.0859 42.0786C17.0859 39.6034 18.1882 37.6782 20.3928 36.0281C22.5975 34.653 25.6288 33.8279 29.7625 33.8279C33.8962 33.8279 37.2031 34.928 39.6833 36.8532C42.1635 38.7783 43.5414 41.5285 43.817 44.8288H59.525C59.2494 37.4032 56.4936 31.6278 51.2577 27.2274C46.0217 22.8271 39.1322 20.627 30.5892 20.627C24.8021 20.627 19.8417 21.452 15.4324 23.3772C11.0232 25.3023 7.71621 28.0525 5.236 31.3528C2.75579 34.653 1.65347 38.2283 1.65347 42.3536C1.65347 47.3039 3.03137 51.1542 5.51158 54.1795C7.99178 57.2047 11.0232 59.4049 14.6057 60.78C18.1882 62.1551 22.873 63.5302 28.3846 65.1803C34.1718 66.8304 38.3054 68.2055 41.0612 69.5806C43.817 70.9557 45.1949 73.1559 45.1949 75.9061C45.1949 78.6563 44.0926 80.8564 41.6124 82.5066C39.1322 84.1567 35.8252 84.9818 31.416 84.9818C27.2823 84.9818 23.6998 83.8817 20.944 81.6815C18.1882 79.4813 16.5347 77.0062 16.2591 73.7059H0C0.275579 78.3813 1.65347 82.5066 4.40926 86.0818C7.16505 89.9321 10.7476 92.6823 15.4324 94.8825C20.1172 96.8076 25.3532 97.9077 31.6916 98.1827C37.4787 98.1827 42.4391 97.3577 46.8484 95.4325C50.9821 93.5074 54.289 90.7572 56.7692 87.4569C59.2494 83.8817 60.3517 80.3064 60.3517 75.9061C60.3517 71.2307 58.9739 67.3804 56.4936 64.3552C54.0134 61.33 50.9821 59.1298 47.3995 57.7547Z" fill="black"/>
<path d="M102.515 23.6518H91.2166V0L74.1308 5.22539V23.6518H62.832V38.7779H74.1308V96.8072H91.2166V38.7779H102.515V23.6518Z" fill="black"/>
<path d="M161.213 32.4524C158.733 28.8771 155.702 26.1269 151.844 24.4768C147.985 22.5516 143.301 21.7266 138.065 21.7266C132.553 21.7266 127.593 22.5516 123.183 24.4768C118.774 26.4019 114.64 29.1521 111.058 33.0024C107.751 36.3027 105.271 40.428 103.342 45.1033C101.413 49.7787 100.586 54.454 100.586 59.6794C100.586 70.6802 104.444 79.7559 111.609 87.1814C119.05 94.607 128.144 98.1823 138.891 98.1823C144.679 98.1823 149.639 97.3572 153.221 95.7071C156.804 94.057 159.835 91.3068 161.764 87.7315V96.8072H178.024V23.6517H161.213V32.4524ZM153.773 75.0805C149.639 79.2059 144.954 81.406 139.443 81.406C133.38 81.406 128.419 79.2059 124.286 75.0805C120.152 70.9552 118.223 65.7299 118.223 59.6794C118.223 53.6289 120.428 48.6786 124.561 44.8283C128.695 40.703 133.655 38.7778 139.443 38.7778C144.954 38.7778 149.639 40.703 153.773 45.1033C157.906 49.5036 159.835 54.454 159.835 60.5045C159.835 66.0049 157.906 70.9552 153.773 75.0805Z" fill="black"/>
<path d="M335.655 37.9524C331.797 32.727 327.112 28.6017 321.6 25.8515C316.089 22.8263 310.026 21.4512 303.688 21.4512C298.727 21.4512 293.767 22.5513 289.082 24.7514C284.397 26.9516 280.264 29.9768 276.406 33.8271C273.099 37.4024 270.343 41.5277 268.689 45.928C266.76 50.3283 265.934 55.0037 265.934 60.2291C265.934 65.1794 266.76 70.1298 268.689 74.8052C270.618 79.4805 273.099 83.6058 276.681 87.1811C280.264 91.0314 284.397 93.7816 289.082 95.7067C293.767 97.6319 298.727 98.7319 304.239 98.7319C312.231 98.7319 319.396 96.5318 325.734 92.1314C332.072 87.7311 336.757 81.4057 339.789 73.4301H321.325C319.671 76.1803 317.191 78.3804 314.16 80.0305C311.129 81.6807 307.822 82.5057 303.963 82.5057C298.176 82.5057 293.491 80.8556 289.909 77.8304C286.382 74.8602 284.232 70.8174 283.626 65.7295H342.545C342.545 65.1794 342.545 64.6294 342.545 63.8043C342.545 62.9793 342.545 62.1542 342.545 61.8792C342.545 56.9288 341.993 52.2535 340.891 48.4032C339.789 44.5529 338.135 40.9776 335.655 37.9524ZM284.397 51.7034C285.5 47.3031 287.98 43.7278 291.562 40.9776C295.145 38.2274 299.279 36.8523 303.688 36.8523C308.924 36.8523 313.058 38.2274 316.64 40.7026C320.14 43.3978 322.593 46.9181 323.97 51.7034H284.397Z" fill="black"/>
<path d="M246.367 17.3262C244.438 19.8014 242.509 21.7265 240.855 23.9267C239.478 25.8518 238.375 25.8518 236.722 25.0267C230.383 22.2765 223.77 21.4515 216.88 22.2765C195.109 25.0267 180.779 44.8282 184.362 66.5549C187.944 87.1814 208.613 100.657 229.557 96.5321C248.021 92.9568 260.973 75.3555 259.319 56.6541C258.768 49.5036 256.288 43.1781 252.154 37.1276C254.634 33.8274 257.115 30.8022 259.595 27.5019C255.186 23.9267 251.052 20.9014 246.367 17.3262ZM221.565 80.8559C209.991 80.8559 200.897 71.2302 200.897 59.6793C201.172 47.8535 210.542 38.7778 222.116 38.7778C233.69 39.0528 242.785 48.4035 242.785 59.9543C242.785 71.2302 233.139 80.8559 221.565 80.8559Z" fill="black"/>
<path d="M240.856 104.507C238.927 107.808 236.446 111.383 233.415 113.583C222.667 121.559 208.062 117.158 202.275 104.782C201.999 103.957 200.897 102.307 200.07 102.307C195.109 102.307 189.874 102.307 184.913 102.307C185.189 119.634 203.652 134.76 223.494 134.21C240.856 133.935 258.768 117.433 258.217 102.032C253.808 102.032 249.399 102.032 244.714 102.032C242.785 102.032 241.958 102.857 240.856 104.507Z" fill="black"/>
<path d="M358.252 77.5557C352.328 77.5557 347.505 82.3685 347.505 88.2815C347.505 94.1944 352.328 99.0073 358.252 99.0073C364.177 99.0073 369 94.1944 369 88.2815C369 82.3685 364.177 77.5557 358.252 77.5557Z" fill="black"/>
</svg>
