<svg width="1619" height="597" viewBox="0 0 1619 597" fill="none" xmlns="http://www.w3.org/2000/svg">
<path d="M190.05 257.156C174.099 251.033 154.466 243.686 129.925 237.563C111.52 231.44 98.0224 227.767 88.2061 224.093C79.6169 220.419 71.0276 215.521 64.8924 209.399C58.7573 203.276 55.0762 195.928 55.0762 187.357C55.0762 176.336 59.9843 167.764 69.8006 160.417C79.6169 154.294 93.1143 150.62 111.52 150.62C129.925 150.62 144.65 155.518 155.693 164.09C166.736 172.662 172.872 184.908 174.099 199.602H244.04C242.813 166.539 230.542 140.824 207.229 121.231C183.915 101.638 153.239 91.8418 115.201 91.8418C89.4332 91.8418 67.3465 95.5154 47.714 104.087C28.0814 112.659 13.357 124.905 2.31366 139.599C-8.72965 154.294 -13.6378 170.213 -13.6378 188.581C-13.6378 210.623 -7.50261 227.767 3.5407 241.237C14.584 254.707 28.0814 264.503 44.0329 270.626C59.9843 276.749 80.8439 282.872 105.385 290.219C131.152 297.566 149.558 303.689 161.828 309.812C174.099 315.934 180.234 325.731 180.234 337.976C180.234 350.222 175.326 360.018 164.282 367.365C153.239 374.713 138.515 378.386 118.882 378.386C100.476 378.386 84.525 373.488 72.2547 363.692C59.9843 353.895 52.6221 342.874 51.3951 328.18H-21C-19.773 348.997 -13.6378 367.365 -1.36744 383.285C10.9029 400.428 26.8544 412.674 47.714 422.47C68.5735 431.042 91.8872 435.94 120.109 437.165C145.877 437.165 167.963 433.491 187.596 424.919C206.001 416.347 220.726 404.102 231.769 389.407C242.813 373.488 247.721 357.569 247.721 337.976C247.721 317.159 241.585 300.015 230.542 286.545C219.499 273.075 206.001 263.279 190.05 257.156Z" fill="#E7B142"/>
<path d="M435.458 105.311H385.149V0L309.073 23.2664V105.311H258.765V172.661H309.073V431.041H385.149V172.661H435.458V105.311Z" fill="#E7B142"/>
<path d="M696.815 144.497C685.772 128.578 672.274 116.332 655.096 108.985C637.917 100.413 617.058 96.7393 593.744 96.7393C569.203 96.7393 547.117 100.413 527.484 108.985C507.851 117.557 489.446 129.802 473.495 146.946C458.77 161.64 447.727 180.009 439.138 200.826C430.548 221.643 426.867 242.461 426.867 265.727C426.867 314.709 444.046 355.119 475.949 388.182C509.079 421.245 549.571 437.164 597.425 437.164C623.193 437.164 645.279 433.49 661.231 426.143C677.182 418.796 690.68 406.55 699.269 390.631V431.041H771.664V105.311H696.815V144.497ZM663.685 334.302C645.279 352.67 624.42 362.466 599.879 362.466C572.884 362.466 550.798 352.67 532.392 334.302C513.987 315.934 505.397 292.667 505.397 265.727C505.397 238.787 515.214 216.745 533.619 199.601C552.025 181.233 574.111 172.661 599.879 172.661C624.42 172.661 645.279 181.233 663.685 200.826C682.09 220.419 690.68 242.461 690.68 269.401C690.68 293.892 682.09 315.934 663.685 334.302Z" fill="#E7B142"/>
<path d="M1473.53 168.989C1456.35 145.722 1435.49 127.354 1410.95 115.108C1386.41 101.638 1359.41 95.5156 1331.19 95.5156C1309.11 95.5156 1287.02 100.414 1266.16 110.21C1245.3 120.007 1226.89 133.477 1209.72 150.62C1194.99 166.539 1182.72 184.908 1175.36 204.501C1166.77 224.093 1163.09 244.911 1163.09 268.177C1163.09 290.219 1166.77 312.261 1175.36 333.078C1183.95 353.896 1194.99 372.264 1210.94 388.183C1226.89 405.327 1245.3 417.572 1266.16 426.144C1287.02 434.716 1309.11 439.614 1333.65 439.614C1369.23 439.614 1401.13 429.818 1429.35 410.225C1457.58 390.632 1478.44 362.467 1491.93 326.955H1409.72C1402.36 339.201 1391.32 348.997 1377.82 356.345C1364.32 363.692 1349.6 367.366 1332.42 367.366C1306.65 367.366 1285.79 360.018 1269.84 346.548C1254.13 333.323 1244.56 315.322 1241.86 292.668H1504.2C1504.2 290.219 1504.2 287.77 1504.2 284.096C1504.2 280.423 1504.2 276.749 1504.2 275.524C1504.2 253.482 1501.75 232.665 1496.84 215.521C1491.93 198.378 1484.57 182.459 1473.53 168.989ZM1245.3 230.216C1250.21 210.623 1261.25 194.704 1277.2 182.459C1293.15 170.213 1311.56 164.09 1331.19 164.09C1354.51 164.09 1372.91 170.213 1388.86 181.234C1404.45 193.235 1415.37 208.909 1421.5 230.216H1245.3Z" fill="#E7B142"/>
<path d="M1075.97 77.1465C1067.38 88.1674 1058.79 96.7393 1051.43 106.536C1045.29 115.108 1040.39 115.108 1033.02 111.434C1004.8 99.1884 975.353 95.5147 944.677 99.1884C847.741 111.434 783.935 199.601 799.887 296.341C815.838 388.182 907.866 448.185 1001.12 429.817C1083.33 413.898 1141 335.526 1133.64 252.257C1131.19 220.419 1120.14 192.254 1101.74 165.314C1112.78 150.619 1123.82 137.149 1134.87 122.455C1115.23 106.536 1096.83 93.0656 1075.97 77.1465ZM965.537 360.017C914.001 360.017 873.509 317.158 873.509 265.727C874.736 213.071 916.455 172.661 967.991 172.661C1019.53 173.886 1060.02 215.521 1060.02 266.952C1060.02 317.158 1017.07 360.017 965.537 360.017Z" fill="#E7B142"/>
<path d="M1048.43 464.329C1039.84 479.023 1028.8 494.942 1015.3 504.739C967.444 540.251 902.411 520.658 876.643 465.553C875.416 461.879 870.508 454.532 866.827 454.532C844.74 454.532 821.426 454.532 799.34 454.532C800.567 531.679 882.778 599.029 971.125 596.58C1048.43 595.355 1128.19 521.882 1125.73 453.308C1106.1 453.308 1086.47 453.308 1065.61 453.308C1057.02 453.308 1053.34 456.981 1048.43 464.329Z" fill="#E7B142"/>
<path d="M1571.15 344.323C1544.76 344.323 1523.29 365.753 1523.29 392.081C1523.29 418.408 1544.76 439.838 1571.15 439.838C1597.53 439.838 1619 418.408 1619 392.081C1619 365.753 1597.53 344.323 1571.15 344.323Z" fill="#E7B142"/>
</svg>
