<svg width="34" height="34" viewBox="0 0 34 34" fill="none" xmlns="http://www.w3.org/2000/svg">
<mask id="mask0_104_1585" style="mask-type:alpha" maskUnits="userSpaceOnUse" x="0" y="0" width="34" height="34">
<rect width="34" height="34" fill="#D9D9D9"/>
</mask>
<g mask="url(#mask0_104_1585)">
<path d="M17 22.667C18.7709 22.667 20.2761 22.0472 21.5156 20.8076C22.7552 19.568 23.375 18.0628 23.375 16.292C23.375 14.5212 22.7552 13.016 21.5156 11.7764C20.2761 10.5368 18.7709 9.91699 17 9.91699C15.2292 9.91699 13.724 10.5368 12.4844 11.7764C11.2448 13.016 10.625 14.5212 10.625 16.292C10.625 18.0628 11.2448 19.568 12.4844 20.8076C13.724 22.0472 15.2292 22.667 17 22.667ZM17 20.117C15.9375 20.117 15.0344 19.7451 14.2906 19.0014C13.5469 18.2576 13.175 17.3545 13.175 16.292C13.175 15.2295 13.5469 14.3264 14.2906 13.5826C15.0344 12.8389 15.9375 12.467 17 12.467C18.0625 12.467 18.9656 12.8389 19.7094 13.5826C20.4531 14.3264 20.825 15.2295 20.825 16.292C20.825 17.3545 20.4531 18.2576 19.7094 19.0014C18.9656 19.7451 18.0625 20.117 17 20.117ZM17 26.917C13.5528 26.917 10.4125 25.9548 7.57919 24.0305C4.74585 22.1062 2.69169 19.5267 1.41669 16.292C2.69169 13.0573 4.74585 10.4778 7.57919 8.55345C10.4125 6.62915 13.5528 5.66699 17 5.66699C20.4472 5.66699 23.5875 6.62915 26.4209 8.55345C29.2542 10.4778 31.3084 13.0573 32.5834 16.292C31.3084 19.5267 29.2542 22.1062 26.4209 24.0305C23.5875 25.9548 20.4472 26.917 17 26.917ZM17 24.0837C19.6681 24.0837 22.1177 23.3812 24.349 21.9764C26.5802 20.5715 28.2861 18.6767 29.4667 16.292C28.2861 13.9073 26.5802 12.0125 24.349 10.6076C22.1177 9.20276 19.6681 8.50033 17 8.50033C14.332 8.50033 11.8823 9.20276 9.65106 10.6076C7.41981 12.0125 5.71391 13.9073 4.53335 16.292C5.71391 18.6767 7.41981 20.5715 9.65106 21.9764C11.8823 23.3812 14.332 24.0837 17 24.0837Z" fill="#677894"/>
</g>
</svg>
