<svg width="99" height="100" viewBox="0 0 99 100" fill="none" xmlns="http://www.w3.org/2000/svg">
<mask id="mask0_50_286" style="mask-type:alpha" maskUnits="userSpaceOnUse" x="0" y="0" width="99" height="100">
<rect y="0.680664" width="98.3331" height="98.3331" fill="#D9D9D9"/>
</mask>
<g mask="url(#mask0_50_286)">
<path d="M49.1665 25.2643C48.6202 25.2643 48.1422 25.0595 47.7324 24.6498C47.3227 24.24 47.1178 23.762 47.1178 23.2157C47.1178 22.6694 47.3227 22.1914 47.7324 21.7817C48.1422 21.372 48.6202 21.1671 49.1665 21.1671C49.7127 21.1671 50.1908 21.372 50.6005 21.7817C51.0102 22.1914 51.2151 22.6694 51.2151 23.2157C51.2151 23.762 51.0102 24.24 50.6005 24.6498C50.1908 25.0595 49.7127 25.2643 49.1665 25.2643ZM57.3609 25.2643C56.8146 25.2643 56.3366 25.0595 55.9268 24.6498C55.5171 24.24 55.3123 23.762 55.3123 23.2157C55.3123 22.6694 55.5171 22.1914 55.9268 21.7817C56.3366 21.372 56.8146 21.1671 57.3609 21.1671C57.9072 21.1671 58.3852 21.372 58.7949 21.7817C59.2046 22.1914 59.4095 22.6694 59.4095 23.2157C59.4095 23.762 59.2046 24.24 58.7949 24.6498C58.3852 25.0595 57.9072 25.2643 57.3609 25.2643ZM40.972 25.2643C40.4257 25.2643 39.9477 25.0595 39.538 24.6498C39.1283 24.24 38.9234 23.762 38.9234 23.2157C38.9234 22.6694 39.1283 22.1914 39.538 21.7817C39.9477 21.372 40.4257 21.1671 40.972 21.1671C41.5183 21.1671 41.9963 21.372 42.4061 21.7817C42.8158 22.1914 43.0206 22.6694 43.0206 23.2157C43.0206 23.762 42.8158 24.24 42.4061 24.6498C41.9963 25.0595 41.5183 25.2643 40.972 25.2643ZM69.6525 29.3615C69.1062 29.3615 68.6282 29.1567 68.2185 28.747C67.8088 28.3372 67.6039 27.8592 67.6039 27.3129C67.6039 26.7666 67.8088 26.2886 68.2185 25.8789C68.6282 25.4692 69.1062 25.2643 69.6525 25.2643C70.1988 25.2643 70.6768 25.4692 71.0865 25.8789C71.4963 26.2886 71.7011 26.7666 71.7011 27.3129C71.7011 27.8592 71.4963 28.3372 71.0865 28.747C70.6768 29.1567 70.1988 29.3615 69.6525 29.3615ZM36.8748 29.3615C36.3285 29.3615 35.8505 29.1567 35.4408 28.747C35.0311 28.3372 34.8262 27.8592 34.8262 27.3129C34.8262 26.7666 35.0311 26.2886 35.4408 25.8789C35.8505 25.4692 36.3285 25.2643 36.8748 25.2643C37.4211 25.2643 37.8991 25.4692 38.3088 25.8789C38.7186 26.2886 38.9234 26.7666 38.9234 27.3129C38.9234 27.8592 38.7186 28.3372 38.3088 28.747C37.8991 29.1567 37.4211 29.3615 36.8748 29.3615ZM28.6804 29.3615C28.1341 29.3615 27.6561 29.1567 27.2464 28.747C26.8366 28.3372 26.6318 27.8592 26.6318 27.3129C26.6318 26.7666 26.8366 26.2886 27.2464 25.8789C27.6561 25.4692 28.1341 25.2643 28.6804 25.2643C29.2267 25.2643 29.7047 25.4692 30.1144 25.8789C30.5241 26.2886 30.729 26.7666 30.729 27.3129C30.729 27.8592 30.5241 28.3372 30.1144 28.747C29.7047 29.1567 29.2267 29.3615 28.6804 29.3615ZM45.0692 29.3615C44.5229 29.3615 44.0449 29.1567 43.6352 28.747C43.2255 28.3372 43.0206 27.8592 43.0206 27.3129C43.0206 26.7666 43.2255 26.2886 43.6352 25.8789C44.0449 25.4692 44.5229 25.2643 45.0692 25.2643C45.6155 25.2643 46.0935 25.4692 46.5033 25.8789C46.913 26.2886 47.1178 26.7666 47.1178 27.3129C47.1178 27.8592 46.913 28.3372 46.5033 28.747C46.0935 29.1567 45.6155 29.3615 45.0692 29.3615ZM53.2637 29.3615C52.7174 29.3615 52.2394 29.1567 51.8296 28.747C51.4199 28.3372 51.2151 27.8592 51.2151 27.3129C51.2151 26.7666 51.4199 26.2886 51.8296 25.8789C52.2394 25.4692 52.7174 25.2643 53.2637 25.2643C53.81 25.2643 54.288 25.4692 54.6977 25.8789C55.1074 26.2886 55.3123 26.7666 55.3123 27.3129C55.3123 27.8592 55.1074 28.3372 54.6977 28.747C54.288 29.1567 53.81 29.3615 53.2637 29.3615ZM61.4581 29.3615C60.9118 29.3615 60.4338 29.1567 60.0241 28.747C59.6143 28.3372 59.4095 27.8592 59.4095 27.3129C59.4095 26.7666 59.6143 26.2886 60.0241 25.8789C60.4338 25.4692 60.9118 25.2643 61.4581 25.2643C62.0044 25.2643 62.4824 25.4692 62.8921 25.8789C63.3018 26.2886 63.5067 26.7666 63.5067 27.3129C63.5067 27.8592 63.3018 28.3372 62.8921 28.747C62.4824 29.1567 62.0044 29.3615 61.4581 29.3615ZM49.1665 33.4588C48.6202 33.4588 48.1422 33.2539 47.7324 32.8442C47.3227 32.4345 47.1178 31.9564 47.1178 31.4102C47.1178 30.8639 47.3227 30.3858 47.7324 29.9761C48.1422 29.5664 48.6202 29.3615 49.1665 29.3615C49.7127 29.3615 50.1908 29.5664 50.6005 29.9761C51.0102 30.3858 51.2151 30.8639 51.2151 31.4102C51.2151 31.9564 51.0102 32.4345 50.6005 32.8442C50.1908 33.2539 49.7127 33.4588 49.1665 33.4588ZM57.3609 33.4588C56.8146 33.4588 56.3366 33.2539 55.9268 32.8442C55.5171 32.4345 55.3123 31.9564 55.3123 31.4102C55.3123 30.8639 55.5171 30.3858 55.9268 29.9761C56.3366 29.5664 56.8146 29.3615 57.3609 29.3615C57.9072 29.3615 58.3852 29.5664 58.7949 29.9761C59.2046 30.3858 59.4095 30.8639 59.4095 31.4102C59.4095 31.9564 59.2046 32.4345 58.7949 32.8442C58.3852 33.2539 57.9072 33.4588 57.3609 33.4588ZM65.5553 33.4588C65.009 33.4588 64.531 33.2539 64.1213 32.8442C63.7116 32.4345 63.5067 31.9564 63.5067 31.4102C63.5067 30.8639 63.7116 30.3858 64.1213 29.9761C64.531 29.5664 65.009 29.3615 65.5553 29.3615C66.1016 29.3615 66.5796 29.5664 66.9893 29.9761C67.399 30.3858 67.6039 30.8639 67.6039 31.4102C67.6039 31.9564 67.399 32.4345 66.9893 32.8442C66.5796 33.2539 66.1016 33.4588 65.5553 33.4588ZM40.972 33.4588C40.4257 33.4588 39.9477 33.2539 39.538 32.8442C39.1283 32.4345 38.9234 31.9564 38.9234 31.4102C38.9234 30.8639 39.1283 30.3858 39.538 29.9761C39.9477 29.5664 40.4257 29.3615 40.972 29.3615C41.5183 29.3615 41.9963 29.5664 42.4061 29.9761C42.8158 30.3858 43.0206 30.8639 43.0206 31.4102C43.0206 31.9564 42.8158 32.4345 42.4061 32.8442C41.9963 33.2539 41.5183 33.4588 40.972 33.4588ZM32.7776 33.4588C32.2313 33.4588 31.7533 33.2539 31.3436 32.8442C30.9339 32.4345 30.729 31.9564 30.729 31.4102C30.729 30.8639 30.9339 30.3858 31.3436 29.9761C31.7533 29.5664 32.2313 29.3615 32.7776 29.3615C33.3239 29.3615 33.8019 29.5664 34.2116 29.9761C34.6213 30.3858 34.8262 30.8639 34.8262 31.4102C34.8262 31.9564 34.6213 32.4345 34.2116 32.8442C33.8019 33.2539 33.3239 33.4588 32.7776 33.4588ZM36.8748 37.556C36.3285 37.556 35.8505 37.3511 35.4408 36.9414C35.0311 36.5317 34.8262 36.0537 34.8262 35.5074C34.8262 34.9611 35.0311 34.4831 35.4408 34.0733C35.8505 33.6636 36.3285 33.4588 36.8748 33.4588C37.4211 33.4588 37.8991 33.6636 38.3088 34.0733C38.7186 34.4831 38.9234 34.9611 38.9234 35.5074C38.9234 36.0537 38.7186 36.5317 38.3088 36.9414C37.8991 37.3511 37.4211 37.556 36.8748 37.556ZM28.6804 37.556C28.1341 37.556 27.6561 37.3511 27.2464 36.9414C26.8366 36.5317 26.6318 36.0537 26.6318 35.5074C26.6318 34.9611 26.8366 34.4831 27.2464 34.0733C27.6561 33.6636 28.1341 33.4588 28.6804 33.4588C29.2267 33.4588 29.7047 33.6636 30.1144 34.0733C30.5241 34.4831 30.729 34.9611 30.729 35.5074C30.729 36.0537 30.5241 36.5317 30.1144 36.9414C29.7047 37.3511 29.2267 37.556 28.6804 37.556ZM45.0692 37.556C44.5229 37.556 44.0449 37.3511 43.6352 36.9414C43.2255 36.5317 43.0206 36.0537 43.0206 35.5074C43.0206 34.9611 43.2255 34.4831 43.6352 34.0733C44.0449 33.6636 44.5229 33.4588 45.0692 33.4588C45.6155 33.4588 46.0935 33.6636 46.5033 34.0733C46.913 34.4831 47.1178 34.9611 47.1178 35.5074C47.1178 36.0537 46.913 36.5317 46.5033 36.9414C46.0935 37.3511 45.6155 37.556 45.0692 37.556ZM53.2637 37.556C52.7174 37.556 52.2394 37.3511 51.8296 36.9414C51.4199 36.5317 51.2151 36.0537 51.2151 35.5074C51.2151 34.9611 51.4199 34.4831 51.8296 34.0733C52.2394 33.6636 52.7174 33.4588 53.2637 33.4588C53.81 33.4588 54.288 33.6636 54.6977 34.0733C55.1074 34.4831 55.3123 34.9611 55.3123 35.5074C55.3123 36.0537 55.1074 36.5317 54.6977 36.9414C54.288 37.3511 53.81 37.556 53.2637 37.556ZM61.4581 37.556C60.9118 37.556 60.4338 37.3511 60.0241 36.9414C59.6143 36.5317 59.4095 36.0537 59.4095 35.5074C59.4095 34.9611 59.6143 34.4831 60.0241 34.0733C60.4338 33.6636 60.9118 33.4588 61.4581 33.4588C62.0044 33.4588 62.4824 33.6636 62.8921 34.0733C63.3018 34.4831 63.5067 34.9611 63.5067 35.5074C63.5067 36.0537 63.3018 36.5317 62.8921 36.9414C62.4824 37.3511 62.0044 37.556 61.4581 37.556ZM69.6525 37.556C69.1062 37.556 68.6282 37.3511 68.2185 36.9414C67.8088 36.5317 67.6039 36.0537 67.6039 35.5074C67.6039 34.9611 67.8088 34.4831 68.2185 34.0733C68.6282 33.6636 69.1062 33.4588 69.6525 33.4588C70.1988 33.4588 70.6768 33.6636 71.0865 34.0733C71.4963 34.4831 71.7011 34.9611 71.7011 35.5074C71.7011 36.0537 71.4963 36.5317 71.0865 36.9414C70.6768 37.3511 70.1988 37.556 69.6525 37.556ZM20.486 37.556C19.9397 37.556 19.4617 37.3511 19.0519 36.9414C18.6422 36.5317 18.4374 36.0537 18.4374 35.5074C18.4374 34.9611 18.6422 34.4831 19.0519 34.0733C19.4617 33.6636 19.9397 33.4588 20.486 33.4588C21.0323 33.4588 21.5103 33.6636 21.92 34.0733C22.3297 34.4831 22.5346 34.9611 22.5346 35.5074C22.5346 36.0537 22.3297 36.5317 21.92 36.9414C21.5103 37.3511 21.0323 37.556 20.486 37.556ZM24.5832 33.4588C24.0369 33.4588 23.5589 33.2539 23.1492 32.8442C22.7394 32.4345 22.5346 31.9564 22.5346 31.4102C22.5346 30.8639 22.7394 30.3858 23.1492 29.9761C23.5589 29.5664 24.0369 29.3615 24.5832 29.3615C25.1295 29.3615 25.6075 29.5664 26.0172 29.9761C26.4269 30.3858 26.6318 30.8639 26.6318 31.4102C26.6318 31.9564 26.4269 32.4345 26.0172 32.8442C25.6075 33.2539 25.1295 33.4588 24.5832 33.4588ZM32.7776 25.2643C32.2313 25.2643 31.7533 25.0595 31.3436 24.6498C30.9339 24.24 30.729 23.762 30.729 23.2157C30.729 22.6694 30.9339 22.1914 31.3436 21.7817C31.7533 21.372 32.2313 21.1671 32.7776 21.1671C33.3239 21.1671 33.8019 21.372 34.2116 21.7817C34.6213 22.1914 34.8262 22.6694 34.8262 23.2157C34.8262 23.762 34.6213 24.24 34.2116 24.6498C33.8019 25.0595 33.3239 25.2643 32.7776 25.2643ZM36.8748 21.1671C36.3285 21.1671 35.8505 20.9623 35.4408 20.5525C35.0311 20.1428 34.8262 19.6648 34.8262 19.1185C34.8262 18.5722 35.0311 18.0942 35.4408 17.6845C35.8505 17.2748 36.3285 17.0699 36.8748 17.0699C37.4211 17.0699 37.8991 17.2748 38.3088 17.6845C38.7186 18.0942 38.9234 18.5722 38.9234 19.1185C38.9234 19.6648 38.7186 20.1428 38.3088 20.5525C37.8991 20.9623 37.4211 21.1671 36.8748 21.1671ZM45.0692 21.1671C44.5229 21.1671 44.0449 20.9623 43.6352 20.5525C43.2255 20.1428 43.0206 19.6648 43.0206 19.1185C43.0206 18.5722 43.2255 18.0942 43.6352 17.6845C44.0449 17.2748 44.5229 17.0699 45.0692 17.0699C45.6155 17.0699 46.0935 17.2748 46.5033 17.6845C46.913 18.0942 47.1178 18.5722 47.1178 19.1185C47.1178 19.6648 46.913 20.1428 46.5033 20.5525C46.0935 20.9623 45.6155 21.1671 45.0692 21.1671ZM53.2637 21.1671C52.7174 21.1671 52.2394 20.9623 51.8296 20.5525C51.4199 20.1428 51.2151 19.6648 51.2151 19.1185C51.2151 18.5722 51.4199 18.0942 51.8296 17.6845C52.2394 17.2748 52.7174 17.0699 53.2637 17.0699C53.81 17.0699 54.288 17.2748 54.6977 17.6845C55.1074 18.0942 55.3123 18.5722 55.3123 19.1185C55.3123 19.6648 55.1074 20.1428 54.6977 20.5525C54.288 20.9623 53.81 21.1671 53.2637 21.1671ZM61.4581 21.1671C60.9118 21.1671 60.4338 20.9623 60.0241 20.5525C59.6143 20.1428 59.4095 19.6648 59.4095 19.1185C59.4095 18.5722 59.6143 18.0942 60.0241 17.6845C60.4338 17.2748 60.9118 17.0699 61.4581 17.0699C62.0044 17.0699 62.4824 17.2748 62.8921 17.6845C63.3018 18.0942 63.5067 18.5722 63.5067 19.1185C63.5067 19.6648 63.3018 20.1428 62.8921 20.5525C62.4824 20.9623 62.0044 21.1671 61.4581 21.1671ZM65.5553 25.2643C65.009 25.2643 64.531 25.0595 64.1213 24.6498C63.7116 24.24 63.5067 23.762 63.5067 23.2157C63.5067 22.6694 63.7116 22.1914 64.1213 21.7817C64.531 21.372 65.009 21.1671 65.5553 21.1671C66.1016 21.1671 66.5796 21.372 66.9893 21.7817C67.399 22.1914 67.6039 22.6694 67.6039 23.2157C67.6039 23.762 67.399 24.24 66.9893 24.6498C66.5796 25.0595 66.1016 25.2643 65.5553 25.2643ZM73.7497 33.4588C73.2034 33.4588 72.7254 33.2539 72.3157 32.8442C71.906 32.4345 71.7011 31.9564 71.7011 31.4102C71.7011 30.8639 71.906 30.3858 72.3157 29.9761C72.7254 29.5664 73.2034 29.3615 73.7497 29.3615C74.296 29.3615 74.774 29.5664 75.1837 29.9761C75.5935 30.3858 75.7983 30.8639 75.7983 31.4102C75.7983 31.9564 75.5935 32.4345 75.1837 32.8442C74.774 33.2539 74.296 33.4588 73.7497 33.4588ZM77.8469 37.556C77.3006 37.556 76.8226 37.3511 76.4129 36.9414C76.0032 36.5317 75.7983 36.0537 75.7983 35.5074C75.7983 34.9611 76.0032 34.4831 76.4129 34.0733C76.8226 33.6636 77.3006 33.4588 77.8469 33.4588C78.3932 33.4588 78.8712 33.6636 79.281 34.0733C79.6907 34.4831 79.8955 34.9611 79.8955 35.5074C79.8955 36.0537 79.6907 36.5317 79.281 36.9414C78.8712 37.3511 78.3932 37.556 77.8469 37.556ZM36.8748 59.0663C35.4408 59.0663 34.2287 58.5712 33.2385 57.5811C32.2484 56.5909 31.7533 55.3788 31.7533 53.9448C31.7533 52.5108 32.2484 51.2987 33.2385 50.3085C34.2287 49.3184 35.4408 48.8233 36.8748 48.8233C38.3088 48.8233 39.5209 49.3184 40.5111 50.3085C41.5013 51.2987 41.9963 52.5108 41.9963 53.9448C41.9963 55.3788 41.5013 56.5909 40.5111 57.5811C39.5209 58.5712 38.3088 59.0663 36.8748 59.0663ZM61.4581 59.0663C60.0241 59.0663 58.812 58.5712 57.8218 57.5811C56.8316 56.5909 56.3366 55.3788 56.3366 53.9448C56.3366 52.5108 56.8316 51.2987 57.8218 50.3085C58.812 49.3184 60.0241 48.8233 61.4581 48.8233C62.8921 48.8233 64.1042 49.3184 65.0944 50.3085C66.0845 51.2987 66.5796 52.5108 66.5796 53.9448C66.5796 55.3788 66.0845 56.5909 65.0944 57.5811C64.1042 58.5712 62.8921 59.0663 61.4581 59.0663ZM49.1665 90.8197C43.5669 90.8197 38.2747 89.7442 33.2898 87.5932C28.3048 85.4421 23.9515 82.5058 20.2299 78.7842C16.5083 75.0625 13.5719 70.7092 11.4209 65.7243C9.26985 60.7394 8.19434 55.4471 8.19434 49.8476C8.19434 44.1798 9.26985 38.8534 11.4209 33.8685C13.5719 28.8835 16.5083 24.5473 20.2299 20.8598C23.9515 17.1723 28.3048 14.2531 33.2898 12.102C38.2747 9.95101 43.5669 8.87549 49.1665 8.87549C54.8343 8.87549 60.1606 9.95101 65.1456 12.102C70.1305 14.2531 74.4667 17.1723 78.1542 20.8598C81.8417 24.5473 84.761 28.8835 86.912 33.8685C89.063 38.8534 90.1386 44.1798 90.1386 49.8476C90.1386 55.4471 89.063 60.7394 86.912 65.7243C84.761 70.7092 81.8417 75.0625 78.1542 78.7842C74.4667 82.5058 70.1305 85.4421 65.1456 87.5932C60.1606 89.7442 54.8343 90.8197 49.1665 90.8197ZM49.1665 82.6253C58.3169 82.6253 66.0674 79.4329 72.4181 73.0481C78.7688 66.6632 81.9441 58.9298 81.9441 49.8476C81.9441 40.6972 78.7688 32.9466 72.4181 26.5959C66.0674 20.2453 58.3169 17.0699 49.1665 17.0699C40.0843 17.0699 32.3508 20.2453 25.966 26.5959C19.5812 32.9466 16.3888 40.6972 16.3888 49.8476C16.3888 58.9298 19.5812 66.6632 25.966 73.0481C32.3508 79.4329 40.0843 82.6253 49.1665 82.6253Z" fill="#1329ED"/>
</g>
</svg>
