<svg width="99" height="100" viewBox="0 0 99 100" fill="none" xmlns="http://www.w3.org/2000/svg">
<mask id="mask0_14_179" style="mask-type:alpha" maskUnits="userSpaceOnUse" x="0" y="0" width="99" height="100">
<rect y="0.680664" width="98.3331" height="98.3331" fill="#D9D9D9"/>
</mask>
<g mask="url(#mask0_14_179)">
<path d="M49.1665 25.2641C48.6202 25.2641 48.1422 25.0592 47.7324 24.6495C47.3227 24.2398 47.1178 23.7618 47.1178 23.2155C47.1178 22.6692 47.3227 22.1912 47.7324 21.7815C48.1422 21.3717 48.6202 21.1669 49.1665 21.1669C49.7127 21.1669 50.1908 21.3717 50.6005 21.7815C51.0102 22.1912 51.2151 22.6692 51.2151 23.2155C51.2151 23.7618 51.0102 24.2398 50.6005 24.6495C50.1908 25.0592 49.7127 25.2641 49.1665 25.2641ZM57.3609 25.2641C56.8146 25.2641 56.3366 25.0592 55.9268 24.6495C55.5171 24.2398 55.3123 23.7618 55.3123 23.2155C55.3123 22.6692 55.5171 22.1912 55.9268 21.7815C56.3366 21.3717 56.8146 21.1669 57.3609 21.1669C57.9072 21.1669 58.3852 21.3717 58.7949 21.7815C59.2046 22.1912 59.4095 22.6692 59.4095 23.2155C59.4095 23.7618 59.2046 24.2398 58.7949 24.6495C58.3852 25.0592 57.9072 25.2641 57.3609 25.2641ZM40.972 25.2641C40.4257 25.2641 39.9477 25.0592 39.538 24.6495C39.1283 24.2398 38.9234 23.7618 38.9234 23.2155C38.9234 22.6692 39.1283 22.1912 39.538 21.7815C39.9477 21.3717 40.4257 21.1669 40.972 21.1669C41.5183 21.1669 41.9963 21.3717 42.4061 21.7815C42.8158 22.1912 43.0206 22.6692 43.0206 23.2155C43.0206 23.7618 42.8158 24.2398 42.4061 24.6495C41.9963 25.0592 41.5183 25.2641 40.972 25.2641ZM69.6525 29.3613C69.1062 29.3613 68.6282 29.1564 68.2185 28.7467C67.8088 28.337 67.6039 27.859 67.6039 27.3127C67.6039 26.7664 67.8088 26.2884 68.2185 25.8787C68.6282 25.469 69.1062 25.2641 69.6525 25.2641C70.1988 25.2641 70.6768 25.469 71.0865 25.8787C71.4963 26.2884 71.7011 26.7664 71.7011 27.3127C71.7011 27.859 71.4963 28.337 71.0865 28.7467C70.6768 29.1564 70.1988 29.3613 69.6525 29.3613ZM36.8748 29.3613C36.3285 29.3613 35.8505 29.1564 35.4408 28.7467C35.0311 28.337 34.8262 27.859 34.8262 27.3127C34.8262 26.7664 35.0311 26.2884 35.4408 25.8787C35.8505 25.469 36.3285 25.2641 36.8748 25.2641C37.4211 25.2641 37.8991 25.469 38.3088 25.8787C38.7186 26.2884 38.9234 26.7664 38.9234 27.3127C38.9234 27.859 38.7186 28.337 38.3088 28.7467C37.8991 29.1564 37.4211 29.3613 36.8748 29.3613ZM28.6804 29.3613C28.1341 29.3613 27.6561 29.1564 27.2464 28.7467C26.8366 28.337 26.6318 27.859 26.6318 27.3127C26.6318 26.7664 26.8366 26.2884 27.2464 25.8787C27.6561 25.469 28.1341 25.2641 28.6804 25.2641C29.2267 25.2641 29.7047 25.469 30.1144 25.8787C30.5241 26.2884 30.729 26.7664 30.729 27.3127C30.729 27.859 30.5241 28.337 30.1144 28.7467C29.7047 29.1564 29.2267 29.3613 28.6804 29.3613ZM45.0692 29.3613C44.5229 29.3613 44.0449 29.1564 43.6352 28.7467C43.2255 28.337 43.0206 27.859 43.0206 27.3127C43.0206 26.7664 43.2255 26.2884 43.6352 25.8787C44.0449 25.469 44.5229 25.2641 45.0692 25.2641C45.6155 25.2641 46.0935 25.469 46.5033 25.8787C46.913 26.2884 47.1178 26.7664 47.1178 27.3127C47.1178 27.859 46.913 28.337 46.5033 28.7467C46.0935 29.1564 45.6155 29.3613 45.0692 29.3613ZM53.2637 29.3613C52.7174 29.3613 52.2394 29.1564 51.8296 28.7467C51.4199 28.337 51.2151 27.859 51.2151 27.3127C51.2151 26.7664 51.4199 26.2884 51.8296 25.8787C52.2394 25.469 52.7174 25.2641 53.2637 25.2641C53.81 25.2641 54.288 25.469 54.6977 25.8787C55.1074 26.2884 55.3123 26.7664 55.3123 27.3127C55.3123 27.859 55.1074 28.337 54.6977 28.7467C54.288 29.1564 53.81 29.3613 53.2637 29.3613ZM61.4581 29.3613C60.9118 29.3613 60.4338 29.1564 60.0241 28.7467C59.6143 28.337 59.4095 27.859 59.4095 27.3127C59.4095 26.7664 59.6143 26.2884 60.0241 25.8787C60.4338 25.469 60.9118 25.2641 61.4581 25.2641C62.0044 25.2641 62.4824 25.469 62.8921 25.8787C63.3018 26.2884 63.5067 26.7664 63.5067 27.3127C63.5067 27.859 63.3018 28.337 62.8921 28.7467C62.4824 29.1564 62.0044 29.3613 61.4581 29.3613ZM49.1665 33.4585C48.6202 33.4585 48.1422 33.2537 47.7324 32.8439C47.3227 32.4342 47.1178 31.9562 47.1178 31.4099C47.1178 30.8636 47.3227 30.3856 47.7324 29.9759C48.1422 29.5662 48.6202 29.3613 49.1665 29.3613C49.7127 29.3613 50.1908 29.5662 50.6005 29.9759C51.0102 30.3856 51.2151 30.8636 51.2151 31.4099C51.2151 31.9562 51.0102 32.4342 50.6005 32.8439C50.1908 33.2537 49.7127 33.4585 49.1665 33.4585ZM57.3609 33.4585C56.8146 33.4585 56.3366 33.2537 55.9268 32.8439C55.5171 32.4342 55.3123 31.9562 55.3123 31.4099C55.3123 30.8636 55.5171 30.3856 55.9268 29.9759C56.3366 29.5662 56.8146 29.3613 57.3609 29.3613C57.9072 29.3613 58.3852 29.5662 58.7949 29.9759C59.2046 30.3856 59.4095 30.8636 59.4095 31.4099C59.4095 31.9562 59.2046 32.4342 58.7949 32.8439C58.3852 33.2537 57.9072 33.4585 57.3609 33.4585ZM65.5553 33.4585C65.009 33.4585 64.531 33.2537 64.1213 32.8439C63.7116 32.4342 63.5067 31.9562 63.5067 31.4099C63.5067 30.8636 63.7116 30.3856 64.1213 29.9759C64.531 29.5662 65.009 29.3613 65.5553 29.3613C66.1016 29.3613 66.5796 29.5662 66.9893 29.9759C67.399 30.3856 67.6039 30.8636 67.6039 31.4099C67.6039 31.9562 67.399 32.4342 66.9893 32.8439C66.5796 33.2537 66.1016 33.4585 65.5553 33.4585ZM40.972 33.4585C40.4257 33.4585 39.9477 33.2537 39.538 32.8439C39.1283 32.4342 38.9234 31.9562 38.9234 31.4099C38.9234 30.8636 39.1283 30.3856 39.538 29.9759C39.9477 29.5662 40.4257 29.3613 40.972 29.3613C41.5183 29.3613 41.9963 29.5662 42.4061 29.9759C42.8158 30.3856 43.0206 30.8636 43.0206 31.4099C43.0206 31.9562 42.8158 32.4342 42.4061 32.8439C41.9963 33.2537 41.5183 33.4585 40.972 33.4585ZM32.7776 33.4585C32.2313 33.4585 31.7533 33.2537 31.3436 32.8439C30.9339 32.4342 30.729 31.9562 30.729 31.4099C30.729 30.8636 30.9339 30.3856 31.3436 29.9759C31.7533 29.5662 32.2313 29.3613 32.7776 29.3613C33.3239 29.3613 33.8019 29.5662 34.2116 29.9759C34.6213 30.3856 34.8262 30.8636 34.8262 31.4099C34.8262 31.9562 34.6213 32.4342 34.2116 32.8439C33.8019 33.2537 33.3239 33.4585 32.7776 33.4585ZM36.8748 37.5557C36.3285 37.5557 35.8505 37.3509 35.4408 36.9411C35.0311 36.5314 34.8262 36.0534 34.8262 35.5071C34.8262 34.9608 35.0311 34.4828 35.4408 34.0731C35.8505 33.6634 36.3285 33.4585 36.8748 33.4585C37.4211 33.4585 37.8991 33.6634 38.3088 34.0731C38.7186 34.4828 38.9234 34.9608 38.9234 35.5071C38.9234 36.0534 38.7186 36.5314 38.3088 36.9411C37.8991 37.3509 37.4211 37.5557 36.8748 37.5557ZM28.6804 37.5557C28.1341 37.5557 27.6561 37.3509 27.2464 36.9411C26.8366 36.5314 26.6318 36.0534 26.6318 35.5071C26.6318 34.9608 26.8366 34.4828 27.2464 34.0731C27.6561 33.6634 28.1341 33.4585 28.6804 33.4585C29.2267 33.4585 29.7047 33.6634 30.1144 34.0731C30.5241 34.4828 30.729 34.9608 30.729 35.5071C30.729 36.0534 30.5241 36.5314 30.1144 36.9411C29.7047 37.3509 29.2267 37.5557 28.6804 37.5557ZM45.0692 37.5557C44.5229 37.5557 44.0449 37.3509 43.6352 36.9411C43.2255 36.5314 43.0206 36.0534 43.0206 35.5071C43.0206 34.9608 43.2255 34.4828 43.6352 34.0731C44.0449 33.6634 44.5229 33.4585 45.0692 33.4585C45.6155 33.4585 46.0935 33.6634 46.5033 34.0731C46.913 34.4828 47.1178 34.9608 47.1178 35.5071C47.1178 36.0534 46.913 36.5314 46.5033 36.9411C46.0935 37.3509 45.6155 37.5557 45.0692 37.5557ZM53.2637 37.5557C52.7174 37.5557 52.2394 37.3509 51.8296 36.9411C51.4199 36.5314 51.2151 36.0534 51.2151 35.5071C51.2151 34.9608 51.4199 34.4828 51.8296 34.0731C52.2394 33.6634 52.7174 33.4585 53.2637 33.4585C53.81 33.4585 54.288 33.6634 54.6977 34.0731C55.1074 34.4828 55.3123 34.9608 55.3123 35.5071C55.3123 36.0534 55.1074 36.5314 54.6977 36.9411C54.288 37.3509 53.81 37.5557 53.2637 37.5557ZM61.4581 37.5557C60.9118 37.5557 60.4338 37.3509 60.0241 36.9411C59.6143 36.5314 59.4095 36.0534 59.4095 35.5071C59.4095 34.9608 59.6143 34.4828 60.0241 34.0731C60.4338 33.6634 60.9118 33.4585 61.4581 33.4585C62.0044 33.4585 62.4824 33.6634 62.8921 34.0731C63.3018 34.4828 63.5067 34.9608 63.5067 35.5071C63.5067 36.0534 63.3018 36.5314 62.8921 36.9411C62.4824 37.3509 62.0044 37.5557 61.4581 37.5557ZM69.6525 37.5557C69.1062 37.5557 68.6282 37.3509 68.2185 36.9411C67.8088 36.5314 67.6039 36.0534 67.6039 35.5071C67.6039 34.9608 67.8088 34.4828 68.2185 34.0731C68.6282 33.6634 69.1062 33.4585 69.6525 33.4585C70.1988 33.4585 70.6768 33.6634 71.0865 34.0731C71.4963 34.4828 71.7011 34.9608 71.7011 35.5071C71.7011 36.0534 71.4963 36.5314 71.0865 36.9411C70.6768 37.3509 70.1988 37.5557 69.6525 37.5557ZM20.486 37.5557C19.9397 37.5557 19.4617 37.3509 19.0519 36.9411C18.6422 36.5314 18.4374 36.0534 18.4374 35.5071C18.4374 34.9608 18.6422 34.4828 19.0519 34.0731C19.4617 33.6634 19.9397 33.4585 20.486 33.4585C21.0323 33.4585 21.5103 33.6634 21.92 34.0731C22.3297 34.4828 22.5346 34.9608 22.5346 35.5071C22.5346 36.0534 22.3297 36.5314 21.92 36.9411C21.5103 37.3509 21.0323 37.5557 20.486 37.5557ZM24.5832 33.4585C24.0369 33.4585 23.5589 33.2537 23.1492 32.8439C22.7394 32.4342 22.5346 31.9562 22.5346 31.4099C22.5346 30.8636 22.7394 30.3856 23.1492 29.9759C23.5589 29.5662 24.0369 29.3613 24.5832 29.3613C25.1295 29.3613 25.6075 29.5662 26.0172 29.9759C26.4269 30.3856 26.6318 30.8636 26.6318 31.4099C26.6318 31.9562 26.4269 32.4342 26.0172 32.8439C25.6075 33.2537 25.1295 33.4585 24.5832 33.4585ZM32.7776 25.2641C32.2313 25.2641 31.7533 25.0592 31.3436 24.6495C30.9339 24.2398 30.729 23.7618 30.729 23.2155C30.729 22.6692 30.9339 22.1912 31.3436 21.7815C31.7533 21.3717 32.2313 21.1669 32.7776 21.1669C33.3239 21.1669 33.8019 21.3717 34.2116 21.7815C34.6213 22.1912 34.8262 22.6692 34.8262 23.2155C34.8262 23.7618 34.6213 24.2398 34.2116 24.6495C33.8019 25.0592 33.3239 25.2641 32.7776 25.2641ZM36.8748 21.1669C36.3285 21.1669 35.8505 20.962 35.4408 20.5523C35.0311 20.1426 34.8262 19.6646 34.8262 19.1183C34.8262 18.572 35.0311 18.094 35.4408 17.6842C35.8505 17.2745 36.3285 17.0697 36.8748 17.0697C37.4211 17.0697 37.8991 17.2745 38.3088 17.6842C38.7186 18.094 38.9234 18.572 38.9234 19.1183C38.9234 19.6646 38.7186 20.1426 38.3088 20.5523C37.8991 20.962 37.4211 21.1669 36.8748 21.1669ZM45.0692 21.1669C44.5229 21.1669 44.0449 20.962 43.6352 20.5523C43.2255 20.1426 43.0206 19.6646 43.0206 19.1183C43.0206 18.572 43.2255 18.094 43.6352 17.6842C44.0449 17.2745 44.5229 17.0697 45.0692 17.0697C45.6155 17.0697 46.0935 17.2745 46.5033 17.6842C46.913 18.094 47.1178 18.572 47.1178 19.1183C47.1178 19.6646 46.913 20.1426 46.5033 20.5523C46.0935 20.962 45.6155 21.1669 45.0692 21.1669ZM53.2637 21.1669C52.7174 21.1669 52.2394 20.962 51.8296 20.5523C51.4199 20.1426 51.2151 19.6646 51.2151 19.1183C51.2151 18.572 51.4199 18.094 51.8296 17.6842C52.2394 17.2745 52.7174 17.0697 53.2637 17.0697C53.81 17.0697 54.288 17.2745 54.6977 17.6842C55.1074 18.094 55.3123 18.572 55.3123 19.1183C55.3123 19.6646 55.1074 20.1426 54.6977 20.5523C54.288 20.962 53.81 21.1669 53.2637 21.1669ZM61.4581 21.1669C60.9118 21.1669 60.4338 20.962 60.0241 20.5523C59.6143 20.1426 59.4095 19.6646 59.4095 19.1183C59.4095 18.572 59.6143 18.094 60.0241 17.6842C60.4338 17.2745 60.9118 17.0697 61.4581 17.0697C62.0044 17.0697 62.4824 17.2745 62.8921 17.6842C63.3018 18.094 63.5067 18.572 63.5067 19.1183C63.5067 19.6646 63.3018 20.1426 62.8921 20.5523C62.4824 20.962 62.0044 21.1669 61.4581 21.1669ZM65.5553 25.2641C65.009 25.2641 64.531 25.0592 64.1213 24.6495C63.7116 24.2398 63.5067 23.7618 63.5067 23.2155C63.5067 22.6692 63.7116 22.1912 64.1213 21.7815C64.531 21.3717 65.009 21.1669 65.5553 21.1669C66.1016 21.1669 66.5796 21.3717 66.9893 21.7815C67.399 22.1912 67.6039 22.6692 67.6039 23.2155C67.6039 23.7618 67.399 24.2398 66.9893 24.6495C66.5796 25.0592 66.1016 25.2641 65.5553 25.2641ZM73.7497 33.4585C73.2034 33.4585 72.7254 33.2537 72.3157 32.8439C71.906 32.4342 71.7011 31.9562 71.7011 31.4099C71.7011 30.8636 71.906 30.3856 72.3157 29.9759C72.7254 29.5662 73.2034 29.3613 73.7497 29.3613C74.296 29.3613 74.774 29.5662 75.1837 29.9759C75.5935 30.3856 75.7983 30.8636 75.7983 31.4099C75.7983 31.9562 75.5935 32.4342 75.1837 32.8439C74.774 33.2537 74.296 33.4585 73.7497 33.4585ZM77.8469 37.5557C77.3006 37.5557 76.8226 37.3509 76.4129 36.9411C76.0032 36.5314 75.7983 36.0534 75.7983 35.5071C75.7983 34.9608 76.0032 34.4828 76.4129 34.0731C76.8226 33.6634 77.3006 33.4585 77.8469 33.4585C78.3932 33.4585 78.8712 33.6634 79.281 34.0731C79.6907 34.4828 79.8955 34.9608 79.8955 35.5071C79.8955 36.0534 79.6907 36.5314 79.281 36.9411C78.8712 37.3509 78.3932 37.5557 77.8469 37.5557ZM36.8748 59.0661C35.4408 59.0661 34.2287 58.571 33.2385 57.5808C32.2484 56.5907 31.7533 55.3786 31.7533 53.9446C31.7533 52.5105 32.2484 51.2985 33.2385 50.3083C34.2287 49.3181 35.4408 48.8231 36.8748 48.8231C38.3088 48.8231 39.5209 49.3181 40.5111 50.3083C41.5013 51.2985 41.9963 52.5105 41.9963 53.9446C41.9963 55.3786 41.5013 56.5907 40.5111 57.5808C39.5209 58.571 38.3088 59.0661 36.8748 59.0661ZM61.4581 59.0661C60.0241 59.0661 58.812 58.571 57.8218 57.5808C56.8316 56.5907 56.3366 55.3786 56.3366 53.9446C56.3366 52.5105 56.8316 51.2985 57.8218 50.3083C58.812 49.3181 60.0241 48.8231 61.4581 48.8231C62.8921 48.8231 64.1042 49.3181 65.0944 50.3083C66.0845 51.2985 66.5796 52.5105 66.5796 53.9446C66.5796 55.3786 66.0845 56.5907 65.0944 57.5808C64.1042 58.571 62.8921 59.0661 61.4581 59.0661ZM49.1665 90.8195C43.5669 90.8195 38.2747 89.7439 33.2898 87.5929C28.3048 85.4419 23.9515 82.5055 20.2299 78.7839C16.5083 75.0623 13.5719 70.709 11.4209 65.7241C9.26985 60.7391 8.19434 55.4469 8.19434 49.8474C8.19434 44.1796 9.26985 38.8532 11.4209 33.8682C13.5719 28.8833 16.5083 24.5471 20.2299 20.8596C23.9515 17.1721 28.3048 14.2528 33.2898 12.1018C38.2747 9.95076 43.5669 8.87524 49.1665 8.87524C54.8343 8.87524 60.1606 9.95076 65.1456 12.1018C70.1305 14.2528 74.4667 17.1721 78.1542 20.8596C81.8417 24.5471 84.761 28.8833 86.912 33.8682C89.063 38.8532 90.1386 44.1796 90.1386 49.8474C90.1386 55.4469 89.063 60.7391 86.912 65.7241C84.761 70.709 81.8417 75.0623 78.1542 78.7839C74.4667 82.5055 70.1305 85.4419 65.1456 87.5929C60.1606 89.7439 54.8343 90.8195 49.1665 90.8195ZM49.1665 82.625C58.3169 82.625 66.0674 79.4326 72.4181 73.0478C78.7688 66.663 81.9441 58.9295 81.9441 49.8474C81.9441 40.6969 78.7688 32.9464 72.4181 26.5957C66.0674 20.245 58.3169 17.0697 49.1665 17.0697C40.0843 17.0697 32.3508 20.245 25.966 26.5957C19.5812 32.9464 16.3888 40.6969 16.3888 49.8474C16.3888 58.9295 19.5812 66.663 25.966 73.0478C32.3508 79.4326 40.0843 82.625 49.1665 82.625Z" fill="#EDB747"/>
</g>
</svg>
