<svg width="90" height="90" viewBox="0 0 90 90" fill="none" xmlns="http://www.w3.org/2000/svg">
<mask id="mask0_80_2415" style="mask-type:alpha" maskUnits="userSpaceOnUse" x="0" y="0" width="90" height="90">
<rect width="90" height="90" fill="#D9D9D9"/>
</mask>
<g mask="url(#mask0_80_2415)">
<path d="M67.5 78.75L82.5 63.75L77.25 58.5L71.25 64.5V48.8438H63.75V64.5L57.75 58.5L52.5 63.75L67.5 78.75ZM52.5 90V82.5H82.5V90H52.5ZM22.5 75C20.4375 75 18.6719 74.2656 17.2031 72.7969C15.7344 71.3281 15 69.5625 15 67.5V15C15 12.9375 15.7344 11.1719 17.2031 9.70313C18.6719 8.23438 20.4375 7.5 22.5 7.5H48.75L71.25 30V41.3438H63.75V33.75H45V15H22.5V67.5H45V75H22.5Z" fill="white"/>
</g>
</svg>
