<svg width="25" height="26" viewBox="0 0 25 26" fill="none" xmlns="http://www.w3.org/2000/svg">
<path d="M7.28963 0C3.26984 0 0 3.40378 0 7.58545V18.4188C0 22.5994 3.27287 26 7.2937 26H17.7104C21.7302 26 25 22.5962 25 18.4146V7.58122C25 3.40063 21.7271 0 17.7063 0H7.28963ZM19.7917 4.33333C20.3667 4.33333 20.8333 4.81867 20.8333 5.41667C20.8333 6.01467 20.3667 6.5 19.7917 6.5C19.2167 6.5 18.75 6.01467 18.75 5.41667C18.75 4.81867 19.2167 4.33333 19.7917 4.33333ZM12.5 6.5C15.9469 6.5 18.75 9.41525 18.75 13C18.75 16.5848 15.9469 19.5 12.5 19.5C9.05312 19.5 6.25 16.5848 6.25 13C6.25 9.41525 9.05312 6.5 12.5 6.5ZM12.5 8.66667C11.3949 8.66667 10.3351 9.12321 9.55372 9.93587C8.77232 10.7485 8.33333 11.8507 8.33333 13C8.33333 14.1493 8.77232 15.2515 9.55372 16.0641C10.3351 16.8768 11.3949 17.3333 12.5 17.3333C13.6051 17.3333 14.6649 16.8768 15.4463 16.0641C16.2277 15.2515 16.6667 14.1493 16.6667 13C16.6667 11.8507 16.2277 10.7485 15.4463 9.93587C14.6649 9.12321 13.6051 8.66667 12.5 8.66667Z" fill="white"/>
</svg>
