<svg width="99" height="100" viewBox="0 0 99 100" fill="none" xmlns="http://www.w3.org/2000/svg">
<mask id="mask0_14_165" style="mask-type:alpha" maskUnits="userSpaceOnUse" x="0" y="0" width="99" height="100">
<rect y="0.680664" width="98.3376" height="98.3376" fill="#D9D9D9"/>
</mask>
<g mask="url(#mask0_14_165)">
<path d="M20.4865 90.8237C18.233 90.8237 16.3038 90.0213 14.699 88.4165C13.0941 86.8117 12.2917 84.8825 12.2917 82.6289V36.4307C11.0625 35.6796 10.0723 34.7064 9.32112 33.5114C8.56993 32.3163 8.19434 30.9334 8.19434 29.3627V17.0705C8.19434 14.817 8.99674 12.8878 10.6016 11.283C12.2064 9.67814 14.1356 8.87573 16.3891 8.87573H81.9475C84.2011 8.87573 86.1303 9.67814 87.7351 11.283C89.3399 12.8878 90.1423 14.817 90.1423 17.0705V29.3627C90.1423 30.9334 89.7667 32.3163 89.0156 33.5114C88.2644 34.7064 87.2742 35.6796 86.0449 36.4307V82.6289C86.0449 84.8825 85.2425 86.8117 83.6377 88.4165C82.0329 90.0213 80.1037 90.8237 77.8501 90.8237H20.4865ZM20.4865 37.5575V82.6289H77.8501V37.5575H20.4865ZM16.3891 29.3627H81.9475V17.0705H16.3891V29.3627ZM36.8761 58.0445H61.4605V49.8497H36.8761V58.0445Z" fill="#EDB747"/>
</g>
</svg>
