<svg width="50" height="50" viewBox="0 0 50 50" fill="none" xmlns="http://www.w3.org/2000/svg">
<mask id="mask0_50_21" style="mask-type:alpha" maskUnits="userSpaceOnUse" x="0" y="0" width="50" height="50">
<rect width="49.2346" height="49.2346" fill="#D9D9D9"/>
</mask>
<g mask="url(#mask0_50_21)">
<path d="M24.6173 43.0803C22.3607 43.0803 20.4289 42.2768 18.822 40.6698C17.215 39.0629 16.4115 37.1311 16.4115 34.8745H10.2572C9.12889 34.8745 8.163 34.4727 7.35952 33.6693C6.55604 32.8658 6.1543 31.8999 6.1543 30.7716C6.1543 25.9849 7.72707 21.8564 10.8726 18.386C14.0182 14.9157 17.9159 12.9241 22.5658 12.4112V6.1543H26.6687V12.4112C31.3187 12.9241 35.2164 14.9157 38.3619 18.386C41.5075 21.8564 43.0803 25.9849 43.0803 30.7716C43.0803 31.8999 42.6785 32.8658 41.875 33.6693C41.0716 34.4727 40.1057 34.8745 38.9774 34.8745H32.823C32.823 37.1311 32.0196 39.0629 30.4126 40.6698C28.8056 42.2768 26.8739 43.0803 24.6173 43.0803ZM10.2572 30.7716H38.9774C38.9774 26.8055 37.5756 23.4206 34.7719 20.617C31.9683 17.8133 28.5834 16.4115 24.6173 16.4115C20.6512 16.4115 17.2663 17.8133 14.4626 20.617C11.659 23.4206 10.2572 26.8055 10.2572 30.7716ZM24.6173 38.9774C25.7456 38.9774 26.7115 38.5756 27.5149 37.7722C28.3184 36.9687 28.7202 36.0028 28.7202 34.8745H20.5144C20.5144 36.0028 20.9161 36.9687 21.7196 37.7722C22.5231 38.5756 23.489 38.9774 24.6173 38.9774Z" fill="black"/>
</g>
</svg>
