<svg width="24" height="25" viewBox="0 0 24 25" fill="none" xmlns="http://www.w3.org/2000/svg">
<mask id="mask0_99_1370" style="mask-type:alpha" maskUnits="userSpaceOnUse" x="0" y="0" width="24" height="25">
<rect y="0.191406" width="24" height="24" fill="#D9D9D9"/>
</mask>
<g mask="url(#mask0_99_1370)">
<path d="M12 1.19141L21.05 6.59141C21.35 6.77474 21.5833 7.02474 21.75 7.34141C21.9167 7.65807 22 7.99141 22 8.34141V19.1914C22 19.7414 21.8042 20.2122 21.4125 20.6039C21.0208 20.9956 20.55 21.1914 20 21.1914H4C3.45 21.1914 2.97917 20.9956 2.5875 20.6039C2.19583 20.2122 2 19.7414 2 19.1914V8.34141C2 7.99141 2.08333 7.65807 2.25 7.34141C2.41667 7.02474 2.65 6.77474 2.95 6.59141L12 1.19141ZM12 12.8414L19.8 8.19141L12 3.54141L4.2 8.19141L12 12.8414ZM12 15.1914L4 10.3914V19.1914H20V10.3914L12 15.1914Z" fill="#1329ED"/>
</g>
</svg>
