<svg width="45" height="45" viewBox="0 0 45 45" fill="none" xmlns="http://www.w3.org/2000/svg">
<mask id="mask0_42_658" style="mask-type:alpha" maskUnits="userSpaceOnUse" x="0" y="0" width="45" height="45">
<rect width="44.4004" height="44.4004" fill="#D9D9D9"/>
</mask>
<g mask="url(#mask0_42_658)">
<path d="M36.2601 38.8501L24.605 27.195C23.68 27.935 22.6162 28.5208 21.4137 28.9525C20.2112 29.3842 18.9316 29.6 17.5749 29.6C14.214 29.6 11.3696 28.436 9.04171 26.1081C6.71377 23.7802 5.5498 20.9358 5.5498 17.5749C5.5498 14.214 6.71377 11.3696 9.04171 9.04171C11.3696 6.71377 14.214 5.5498 17.5749 5.5498C20.9358 5.5498 23.7802 6.71377 26.1081 9.04171C28.436 11.3696 29.6 14.214 29.6 17.5749C29.6 18.9316 29.3842 20.2112 28.9525 21.4137C28.5208 22.6162 27.935 23.68 27.195 24.605L38.8501 36.2601L36.2601 38.8501ZM17.5749 25.9C19.8874 25.9 21.8531 25.0906 23.4718 23.4718C25.0906 21.8531 25.9 19.8874 25.9 17.5749C25.9 15.2624 25.0906 13.2967 23.4718 11.678C21.8531 10.0592 19.8874 9.24984 17.5749 9.24984C15.2624 9.24984 13.2967 10.0592 11.678 11.678C10.0592 13.2967 9.24984 15.2624 9.24984 17.5749C9.24984 19.8874 10.0592 21.8531 11.678 23.4718C13.2967 25.0906 15.2624 25.9 17.5749 25.9Z" fill="white"/>
</g>
</svg>
