<svg width="367" height="367" viewBox="0 0 367 367" fill="none" xmlns="http://www.w3.org/2000/svg">
<mask id="mask0_52_345" style="mask-type:alpha" maskUnits="userSpaceOnUse" x="0" y="0" width="367" height="367">
<rect width="367" height="367" fill="#D9D9D9"/>
</mask>
<g mask="url(#mask0_52_345)">
<path d="M45.8753 336.417C37.4649 336.417 30.2651 333.422 24.2758 327.433C18.2866 321.443 15.292 314.244 15.292 305.833V107.042H45.8753V305.833H275.25V336.417H45.8753ZM214.084 208.731L107.042 146.035V244.667H321.125V146.035L214.084 208.731ZM107.042 275.25C98.6316 275.25 91.4317 272.255 85.4425 266.266C79.4533 260.277 76.4587 253.077 76.4587 244.667V114.687C76.4587 109.335 77.6693 104.238 80.0904 99.3957C82.5116 94.5533 86.1434 90.7304 90.9857 87.9269L214.084 15.2915L244.667 33.2592L110.1 112.394L214.084 173.56L317.302 112.394C321.125 110.1 325.012 109.017 328.962 109.144C332.913 109.272 336.672 110.355 340.24 112.394C343.808 114.432 346.611 117.172 348.65 120.613C350.689 124.053 351.709 127.94 351.709 132.273V244.667C351.709 253.077 348.714 260.277 342.725 266.266C336.736 272.255 329.536 275.25 321.125 275.25H107.042ZM214.084 152.917L171.267 110.1L192.675 88.6915L214.084 110.1L268.369 55.8144L289.777 77.2228L214.084 152.917Z" fill="#0D22E3"/>
</g>
</svg>
