<svg width="307" height="307" viewBox="0 0 307 307" fill="none" xmlns="http://www.w3.org/2000/svg">
<mask id="mask0_35_550" style="mask-type:alpha" maskUnits="userSpaceOnUse" x="0" y="0" width="307" height="307">
<rect width="306.495" height="306.495" fill="#D9D9D9"/>
</mask>
<g mask="url(#mask0_35_550)">
<path d="M38.3117 280.953C31.2879 280.953 25.2751 278.452 20.2732 273.451C15.2714 268.449 12.7705 262.436 12.7705 255.412V89.3942H38.3117V255.412H229.871V280.953H38.3117ZM178.788 174.319L89.3942 121.959V204.33H268.183V121.959L178.788 174.319ZM89.3942 229.871C82.3703 229.871 76.3575 227.37 71.3557 222.368C66.3539 217.366 63.8529 211.353 63.8529 204.33V95.7795C63.8529 91.3098 64.864 87.0529 66.886 83.0089C68.908 78.9648 71.941 75.7722 75.985 73.4309L178.788 12.7705L204.33 27.776L91.9483 93.8639L178.788 144.946L264.99 93.8639C268.183 91.9483 271.429 91.0437 274.728 91.1501C278.027 91.2566 281.166 92.1611 284.146 93.8639C287.126 95.5666 289.467 97.8547 291.17 100.728C292.873 103.601 293.724 106.847 293.724 110.466V204.33C293.724 211.353 291.223 217.366 286.221 222.368C281.219 227.37 275.207 229.871 268.183 229.871H89.3942ZM178.788 127.706L143.031 91.9483L160.91 74.0694L178.788 91.9483L224.124 46.6126L242.003 64.4915L178.788 127.706Z" fill="#838385"/>
</g>
</svg>
