<svg width="34" height="34" viewBox="0 0 34 34" fill="none" xmlns="http://www.w3.org/2000/svg">
<mask id="mask0_117_23" style="mask-type:alpha" maskUnits="userSpaceOnUse" x="0" y="0" width="34" height="34">
<rect x="0.0883789" y="0.911621" width="33.0667" height="33.0667" fill="#D9D9D9"/>
</mask>
<g mask="url(#mask0_117_23)">
<path d="M12.4882 18.1337H13.866V15.3781H15.2438C15.6341 15.3781 15.9613 15.2461 16.2254 14.982C16.4895 14.7179 16.6215 14.3907 16.6215 14.0003V12.6225C16.6215 12.2322 16.4895 11.905 16.2254 11.6409C15.9613 11.3768 15.6341 11.2448 15.2438 11.2448H12.4882V18.1337ZM13.866 14.0003V12.6225H15.2438V14.0003H13.866ZM17.9993 18.1337H20.7549C21.1452 18.1337 21.4725 18.0016 21.7365 17.7375C22.0006 17.4735 22.1326 17.1463 22.1326 16.7559V12.6225C22.1326 12.2322 22.0006 11.905 21.7365 11.6409C21.4725 11.3768 21.1452 11.2448 20.7549 11.2448H17.9993V18.1337ZM19.3771 16.7559V12.6225H20.7549V16.7559H19.3771ZM23.5104 18.1337H24.8882V15.3781H26.266V14.0003H24.8882V12.6225H26.266V11.2448H23.5104V18.1337ZM11.1104 25.7114C10.3526 25.7114 9.70394 25.4416 9.16431 24.902C8.62468 24.3624 8.35486 23.7137 8.35486 22.9559V6.42255C8.35486 5.66477 8.62468 5.01607 9.16431 4.47644C9.70394 3.93681 10.3526 3.66699 11.1104 3.66699H27.6438C28.4015 3.66699 29.0502 3.93681 29.5899 4.47644C30.1295 5.01607 30.3993 5.66477 30.3993 6.42255V22.9559C30.3993 23.7137 30.1295 24.3624 29.5899 24.902C29.0502 25.4416 28.4015 25.7114 27.6438 25.7114H11.1104ZM11.1104 22.9559H27.6438V6.42255H11.1104V22.9559ZM5.59931 31.2225C4.84153 31.2225 4.19282 30.9527 3.65319 30.4131C3.11356 29.8735 2.84375 29.2248 2.84375 28.467V9.1781H5.59931V28.467H24.8882V31.2225H5.59931Z" fill="#7F7F7F"/>
</g>
</svg>
