<svg width="60" height="61" viewBox="0 0 60 61" fill="none" xmlns="http://www.w3.org/2000/svg">
<mask id="mask0_74_1609" style="mask-type:alpha" maskUnits="userSpaceOnUse" x="0" y="0" width="60" height="61">
<rect y="0.0449219" width="60" height="60" fill="#D9D9D9"/>
</mask>
<g mask="url(#mask0_74_1609)">
<path d="M30 50.0449C33.125 50.0449 35.7812 48.9512 37.9688 46.7637C40.1562 44.5762 41.25 41.9199 41.25 38.7949C41.25 35.6699 40.1562 33.0137 37.9688 30.8262C35.7812 28.6387 33.125 27.5449 30 27.5449C26.875 27.5449 24.2188 28.6387 22.0312 30.8262C19.8438 33.0137 18.75 35.6699 18.75 38.7949C18.75 41.9199 19.8438 44.5762 22.0312 46.7637C24.2188 48.9512 26.875 50.0449 30 50.0449ZM22.6875 24.2949C23.5208 23.8366 24.4062 23.472 25.3438 23.2012C26.2812 22.9303 27.2292 22.7533 28.1875 22.6699L21.875 10.0449H15.625L22.6875 24.2949ZM37.3125 24.2949L44.4375 10.0449H38.125L32.8125 20.6699L34 23.0449C34.5833 23.2116 35.1458 23.3887 35.6875 23.5762C36.2292 23.7637 36.7708 24.0033 37.3125 24.2949ZM16 47.0449C15.2917 45.8366 14.7396 44.5345 14.3438 43.1387C13.9479 41.7428 13.75 40.2949 13.75 38.7949C13.75 37.2949 13.9479 35.847 14.3438 34.4512C14.7396 33.0553 15.2917 31.7533 16 30.5449C14.25 31.1283 12.8125 32.1595 11.6875 33.6387C10.5625 35.1178 10 36.8366 10 38.7949C10 40.7533 10.5625 42.472 11.6875 43.9512C12.8125 45.4303 14.25 46.4616 16 47.0449ZM44 47.0449C45.75 46.4616 47.1875 45.4303 48.3125 43.9512C49.4375 42.472 50 40.7533 50 38.7949C50 36.8366 49.4375 35.1178 48.3125 33.6387C47.1875 32.1595 45.75 31.1283 44 30.5449C44.7083 31.7533 45.2604 33.0553 45.6562 34.4512C46.0521 35.847 46.25 37.2949 46.25 38.7949C46.25 40.2949 46.0521 41.7428 45.6562 43.1387C45.2604 44.5345 44.7083 45.8366 44 47.0449ZM30 55.0449C28.3333 55.0449 26.7396 54.8053 25.2188 54.3262C23.6979 53.847 22.2917 53.1908 21 52.3574C20.625 52.4408 20.25 52.4928 19.875 52.5137C19.5 52.5345 19.1042 52.5449 18.6875 52.5449C14.8958 52.5449 11.6667 51.2116 9 48.5449C6.33333 45.8783 5 42.6491 5 38.8574C5 35.2324 6.20833 32.1283 8.625 29.5449C11.0417 26.9616 14.0208 25.5241 17.5625 25.2324L7.5 5.04492H25L30 15.0449L35 5.04492H52.5L42.5 25.1074C46.0417 25.4408 49.0104 26.8991 51.4062 29.4824C53.8021 32.0658 55 35.1699 55 38.7949C55 42.6283 53.6667 45.8783 51 48.5449C48.3333 51.2116 45.0833 52.5449 41.25 52.5449C40.875 52.5449 40.4896 52.5345 40.0938 52.5137C39.6979 52.4928 39.3125 52.4408 38.9375 52.3574C37.6458 53.1908 36.25 53.847 34.75 54.3262C33.25 54.8053 31.6667 55.0449 30 55.0449ZM25.375 45.6699L27.125 39.9824L22.5 36.6699H28.1875L30 30.6699L31.8125 36.6699H37.5L32.875 39.9824L34.625 45.6699L30 42.1699L25.375 45.6699Z" fill="white"/>
</g>
</svg>
