<svg width="108" height="108" viewBox="0 0 108 108" fill="none" xmlns="http://www.w3.org/2000/svg">
<mask id="mask0_14_190" style="mask-type:alpha" maskUnits="userSpaceOnUse" x="0" y="0" width="108" height="108">
<rect y="0.195068" width="107.242" height="107.242" fill="#D9D9D9"/>
</mask>
<g mask="url(#mask0_14_190)">
<path d="M53.6211 49.3477C56.0787 49.3477 58.1826 48.4727 59.9327 46.7225C61.6829 44.9724 62.5579 42.8685 62.5579 40.4109C62.5579 37.9533 61.6829 35.8494 59.9327 34.0992C58.1826 32.3491 56.0787 31.474 53.6211 31.474C51.1635 31.474 49.0596 32.3491 47.3094 34.0992C45.5593 35.8494 44.6842 37.9533 44.6842 40.4109C44.6842 42.8685 45.5593 44.9724 47.3094 46.7225C49.0596 48.4727 51.1635 49.3477 53.6211 49.3477ZM31.279 94.032V85.0951H49.1527V71.243C45.5035 70.4238 42.2452 68.8785 39.378 66.607C36.5108 64.3356 34.4069 61.487 33.0663 58.0612C27.4808 57.3909 22.8076 54.9519 19.0467 50.7441C15.2857 46.5364 13.4053 41.6025 13.4053 35.9425V31.474C13.4053 29.0164 14.2803 26.9125 16.0305 25.1624C17.7806 23.4123 19.8845 22.5372 22.3421 22.5372H31.279V13.6003H75.9632V22.5372H84.9001C87.3577 22.5372 89.4616 23.4123 91.2117 25.1624C92.9619 26.9125 93.8369 29.0164 93.8369 31.474V35.9425C93.8369 41.6025 91.9565 46.5364 88.1955 50.7441C84.4346 54.9519 79.7614 57.3909 74.1759 58.0612C72.8353 61.487 70.7314 64.3356 67.8642 66.607C64.997 68.8785 61.7387 70.4238 58.0895 71.243V85.0951H75.9632V94.032H31.279ZM31.279 48.4541V31.474H22.3421V35.9425C22.3421 38.7725 23.1613 41.3232 24.7998 43.5946C26.4382 45.8661 28.5979 47.4859 31.279 48.4541ZM53.6211 62.753C57.3448 62.753 60.5099 61.4497 63.1165 58.8431C65.7231 56.2366 67.0264 53.0714 67.0264 49.3477V22.5372H40.2158V49.3477C40.2158 53.0714 41.5191 56.2366 44.1257 58.8431C46.7323 61.4497 49.8974 62.753 53.6211 62.753ZM75.9632 48.4541C78.6443 47.4859 80.804 45.8661 82.4424 43.5946C84.0809 41.3232 84.9001 38.7725 84.9001 35.9425V31.474H75.9632V48.4541Z" fill="#EDB747"/>
</g>
</svg>
