<svg width="105" height="106" viewBox="0 0 105 106" fill="none" xmlns="http://www.w3.org/2000/svg">
<mask id="mask0_14_149" style="mask-type:alpha" maskUnits="userSpaceOnUse" x="0" y="0" width="105" height="106">
<rect y="0.583496" width="104.532" height="104.532" fill="#D9D9D9"/>
</mask>
<g mask="url(#mask0_14_149)">
<path d="M52.2659 70.2715C59.6703 63.5931 64.425 58.8927 66.5302 56.1706C68.6354 53.4484 69.6879 50.7443 69.6879 48.0584C69.6879 45.4451 68.7442 43.1948 66.8569 41.3074C64.9695 39.42 62.7191 38.4763 60.1058 38.4763C58.5814 38.4763 57.1114 38.7848 55.6959 39.4019C54.2803 40.0189 53.137 40.8718 52.2659 41.9607C51.3948 40.8718 50.2696 40.0189 48.8904 39.4019C47.5112 38.7848 46.023 38.4763 44.426 38.4763C41.8127 38.4763 39.5624 39.42 37.675 41.3074C35.7876 43.1948 34.8439 45.4451 34.8439 48.0584C34.8439 49.4377 35.0254 50.708 35.3883 51.8695C35.7513 53.031 36.5498 54.3921 37.7839 55.9528C39.0179 57.5135 40.7783 59.419 43.0649 61.6694C45.3515 63.9197 48.4185 66.7871 52.2659 70.2715ZM52.2659 96.4045C42.1757 93.8638 33.8458 88.0746 27.2762 79.0369C20.7067 69.9993 17.4219 59.9635 17.4219 48.9295V22.3609L52.2659 9.29443L87.1099 22.3609V48.9295C87.1099 59.9635 83.8252 69.9993 77.2556 79.0369C70.6861 88.0746 62.3562 93.8638 52.2659 96.4045ZM52.2659 87.258C59.8155 84.8624 66.0583 80.0714 70.9946 72.8848C75.9308 65.6982 78.3989 57.7131 78.3989 48.9295V28.3498L52.2659 18.5499L26.1329 28.3498V48.9295C26.1329 57.7131 28.601 65.6982 33.5372 72.8848C38.4735 80.0714 44.7164 84.8624 52.2659 87.258Z" fill="#EDB747"/>
</g>
</svg>
