<svg width="241" height="88" viewBox="0 0 241 88" fill="none" xmlns="http://www.w3.org/2000/svg">
<path d="M30.9574 37.7204C28.6176 36.8223 25.7379 35.7446 22.1382 34.8465C19.4384 33.9484 17.4585 33.4095 16.0187 32.8707C14.7588 32.3318 13.4989 31.6133 12.599 30.7152C11.699 29.8171 11.1591 28.7394 11.1591 27.4821C11.1591 25.8655 11.879 24.6081 13.3189 23.5304C14.7588 22.6323 16.7386 22.0935 19.4384 22.0935C22.1382 22.0935 24.298 22.8119 25.9178 24.0693C27.5377 25.3266 28.4376 27.1228 28.6176 29.2783H38.8768C38.6968 24.4285 36.8969 20.6565 33.4772 17.7826C30.0575 14.9086 25.5579 13.4717 19.9783 13.4717C16.1987 13.4717 12.9589 14.0105 10.0792 15.2679C7.1994 16.5252 5.03958 18.3214 3.41972 20.4769C1.79985 22.6323 1.07991 24.9674 1.07991 27.6617C1.07991 30.8949 1.97984 33.4095 3.5997 35.3854C5.21957 37.3612 7.1994 38.7982 9.53921 39.6963C11.879 40.5944 14.9388 41.4925 18.5385 42.5702C22.3181 43.6479 25.0179 44.546 26.8178 45.4441C28.6176 46.3422 29.5175 47.7792 29.5175 49.5754C29.5175 51.3716 28.7976 52.8086 27.1777 53.8863C25.5579 54.964 23.3981 55.5029 20.5183 55.5029C17.8185 55.5029 15.4787 54.7844 13.6789 53.3474C11.879 51.9105 10.7991 50.2939 10.6191 48.1384H0C0.179985 51.192 1.07991 53.8863 2.87976 56.2213C4.67961 58.736 7.01942 60.5322 10.0792 61.9692C13.1389 63.2265 16.5586 63.945 20.6983 64.1246C24.478 64.1246 27.7177 63.5858 30.5975 62.3284C33.2972 61.0711 35.4571 59.2749 37.0769 57.1194C38.6968 54.7844 39.4167 52.4493 39.4167 49.5754C39.4167 46.5218 38.5168 44.0072 36.8969 42.0313C35.2771 40.0555 33.2972 38.6185 30.9574 37.7204Z" fill="white"/>
<path d="M66.954 15.4474H59.5746V0L48.4155 3.41279V15.4474H41.0361V25.3265H48.4155V63.2264H59.5746V25.3265H66.954V15.4474Z" fill="white"/>
<path d="M105.291 21.1947C103.671 18.8596 101.691 17.0634 99.1716 15.9857C96.6518 14.7283 93.592 14.1895 90.1723 14.1895C86.5726 14.1895 83.3329 14.7283 80.4531 15.9857C77.5733 17.243 74.8736 19.0392 72.5338 21.5539C70.3739 23.7093 68.7541 26.4036 67.4942 29.4572C66.2343 32.5107 65.6943 35.5643 65.6943 38.9771C65.6943 46.1619 68.2141 52.0894 72.8937 56.9391C77.7533 61.7889 83.6928 64.1239 90.7123 64.1239C94.4919 64.1239 97.7317 63.5851 100.071 62.5073C102.411 61.4296 104.391 59.6334 105.651 57.2984V63.2258H116.27V15.4468H105.291V21.1947ZM100.431 49.0358C97.7317 51.7301 94.6719 53.1671 91.0722 53.1671C87.1126 53.1671 83.8728 51.7301 81.173 49.0358C78.4733 46.3415 77.2134 42.9287 77.2134 38.9771C77.2134 35.0254 78.6533 31.7923 81.353 29.2776C84.0528 26.5833 87.2925 25.3259 91.0722 25.3259C94.6719 25.3259 97.7317 26.5833 100.431 29.4572C103.131 32.3311 104.391 35.5643 104.391 39.5159C104.391 43.1083 103.131 46.3415 100.431 49.0358Z" fill="white"/>
<path d="M219.222 24.788C216.702 21.3752 213.642 18.6809 210.043 16.8847C206.443 14.9088 202.483 14.0107 198.343 14.0107C195.104 14.0107 191.864 14.7292 188.804 16.1662C185.745 17.6032 183.045 19.579 180.525 22.0937C178.365 24.4287 176.565 27.123 175.485 29.997C174.226 32.8709 173.686 35.9244 173.686 39.3372C173.686 42.5704 174.226 45.8036 175.485 48.8571C176.745 51.9107 178.365 54.605 180.705 56.94C183.045 59.4547 185.745 61.2509 188.804 62.5083C191.864 63.7656 195.104 64.4841 198.703 64.4841C203.923 64.4841 208.603 63.0471 212.742 60.1732C216.882 57.2993 219.942 53.168 221.922 47.959H209.863C208.783 49.7552 207.163 51.1922 205.183 52.2699C203.203 53.3476 201.043 53.8865 198.523 53.8865C194.744 53.8865 191.684 52.8088 189.344 50.8329C187.04 48.893 185.637 46.2526 185.241 42.9296H223.721C223.721 42.5704 223.721 42.2112 223.721 41.6723C223.721 41.1334 223.721 40.5946 223.721 40.4149C223.721 37.1818 223.361 34.1282 222.641 31.6135C221.922 29.0989 220.842 26.7638 219.222 24.788ZM185.745 33.769C186.464 30.8951 188.084 28.56 190.424 26.7638C192.764 24.9676 195.464 24.0695 198.343 24.0695C201.763 24.0695 204.463 24.9676 206.803 26.5842C209.089 28.3445 210.69 30.6436 211.59 33.769H185.745Z" fill="white"/>
<path d="M160.907 11.3154C159.647 12.932 158.387 14.1894 157.307 15.6263C156.407 16.8837 155.687 16.8837 154.607 16.3448C150.467 14.5486 146.148 14.0097 141.648 14.5486C127.429 16.3448 118.07 29.2775 120.41 43.4675C122.75 56.939 136.249 65.7404 149.927 63.0461C161.986 60.711 170.446 49.2153 169.366 37.0012C169.006 32.331 167.386 28.1997 164.686 24.2481C166.306 22.0927 167.926 20.1168 169.546 17.9614C166.666 15.6263 163.966 13.6505 160.907 11.3154ZM144.708 52.8077C137.148 52.8077 131.209 46.521 131.209 38.977C131.389 31.2533 137.508 25.3258 145.068 25.3258C152.627 25.5054 158.567 31.6125 158.567 39.1566C158.567 46.521 152.267 52.8077 144.708 52.8077Z" fill="white"/>
<path d="M157.306 68.2553C156.047 70.4107 154.427 72.7458 152.447 74.1827C145.427 79.3917 135.888 76.5178 132.109 68.4349C131.929 67.896 131.209 66.8183 130.669 66.8183C127.429 66.8183 124.009 66.8183 120.77 66.8183C120.95 78.1344 133.009 88.0135 145.967 87.6543C157.306 87.4746 169.006 76.6974 168.646 66.6387C165.766 66.6387 162.886 66.6387 159.826 66.6387C158.566 66.6387 158.026 67.1775 157.306 68.2553Z" fill="white"/>
<path d="M233.98 50.6533C230.111 50.6533 226.961 53.7967 226.961 57.6585C226.961 61.5204 230.111 64.6637 233.98 64.6637C237.85 64.6637 241 61.5204 241 57.6585C241 53.7967 237.85 50.6533 233.98 50.6533Z" fill="white"/>
</svg>
