<svg width="43" height="43" viewBox="0 0 43 43" fill="none" xmlns="http://www.w3.org/2000/svg">
<mask id="mask0_50_74" style="mask-type:alpha" maskUnits="userSpaceOnUse" x="0" y="0" width="43" height="43">
<rect width="42.9351" height="42.9351" fill="#D9D9D9"/>
</mask>
<g mask="url(#mask0_50_74)">
<path d="M15.3852 40.2518L11.9861 34.5271L5.54588 33.0959L6.17202 26.4768L1.78906 21.4677L6.17202 16.4586L5.54588 9.83944L11.9861 8.40827L15.3852 2.68359L21.4676 5.27759L27.5501 2.68359L30.9491 8.40827L37.3894 9.83944L36.7632 16.4586L41.1462 21.4677L36.7632 26.4768L37.3894 33.0959L30.9491 34.5271L27.5501 40.2518L21.4676 37.6578L15.3852 40.2518ZM16.9058 35.6899L21.4676 33.7221L26.1189 35.6899L28.6235 31.3964L33.5431 30.2336L33.0959 25.2245L36.4055 21.4677L33.0959 17.6214L33.5431 12.6123L28.6235 11.5389L26.0295 7.24544L21.4676 9.2133L16.8163 7.24544L14.3118 11.5389L9.39215 12.6123L9.83939 17.6214L6.52981 21.4677L9.83939 25.2245L9.39215 30.323L14.3118 31.3964L16.9058 35.6899ZM19.5892 27.8185L29.6968 17.7109L27.1923 15.1169L19.5892 22.72L15.743 18.9631L13.2384 21.4677L19.5892 27.8185Z" fill="black"/>
</g>
</svg>
