<svg width="346" height="342" viewBox="0 0 346 342" fill="none" xmlns="http://www.w3.org/2000/svg">
<path d="M270.815 48.4967C259.772 32.5775 246.274 20.332 229.096 12.9847C211.917 4.4129 191.058 0.739258 167.744 0.739258C143.203 0.739258 121.117 4.4129 101.484 12.9847C81.8515 21.5566 63.446 33.8021 47.4945 50.9458C32.7701 65.6404 21.7268 84.0086 13.1375 104.826C4.54829 125.643 0.867188 146.461 0.867188 169.727C0.867188 218.709 18.0457 259.119 49.9486 292.182C83.0785 325.245 123.571 341.164 171.425 341.164C197.193 341.164 219.279 337.49 235.231 330.143C251.182 322.796 264.68 310.55 273.269 294.631V335.041H345.664V9.31111H270.815V48.4967ZM237.685 238.302C219.279 256.67 198.42 266.466 173.879 266.466C146.884 266.466 124.798 256.67 106.392 238.302C87.9866 219.934 79.3974 196.667 79.3974 169.727C79.3974 142.787 89.2137 120.745 107.619 103.601C126.025 85.2332 148.111 76.6613 173.879 76.6613C198.42 76.6613 219.279 85.2332 237.685 104.826C256.09 124.419 264.68 146.461 264.68 173.401C264.68 197.892 256.09 219.934 237.685 238.302Z" fill="#E7B142"/>
</svg>
