<svg width="342" height="345" viewBox="0 0 342 345" fill="none" xmlns="http://www.w3.org/2000/svg">
<path d="M310.528 73.9886C293.349 50.7221 272.49 32.3539 247.949 20.1084C223.408 6.63836 196.413 0.515625 168.192 0.515625C146.105 0.515625 124.018 5.41382 103.159 15.2102C82.2993 25.0066 63.8937 38.4767 46.7153 55.6203C31.9908 71.5395 19.7205 89.9077 12.3582 109.501C3.769 129.093 0.0878906 149.911 0.0878906 173.177C0.0878906 195.219 3.769 217.261 12.3582 238.078C20.9475 258.896 31.9908 277.264 47.9423 293.183C63.8937 310.327 82.2993 322.572 103.159 331.144C124.018 339.716 146.105 344.614 170.646 344.614C206.23 344.614 238.133 334.818 266.354 315.225C294.576 295.632 315.436 267.467 328.933 231.955H246.722C239.36 244.201 228.316 253.997 214.819 261.345C201.322 268.692 186.597 272.366 169.419 272.366C143.651 272.366 122.791 265.018 106.84 251.548C91.1339 238.323 81.563 220.322 78.8635 197.668H341.204C341.204 195.219 341.204 192.77 341.204 189.096C341.204 185.423 341.204 181.749 341.204 180.524C341.204 158.482 338.75 137.665 333.841 120.521C328.933 103.378 321.571 87.4586 310.528 73.9886ZM82.2992 135.216C87.2073 115.623 98.2507 99.7041 114.202 87.4586C130.154 75.2131 148.559 69.0904 168.192 69.0904C191.505 69.0904 209.911 75.2131 225.862 86.2341C241.446 98.2347 252.366 113.909 258.501 135.216H82.2992Z" fill="#E7B142"/>
</svg>
