<svg width="248" height="347" viewBox="0 0 248 347" fill="none" xmlns="http://www.w3.org/2000/svg">
<path d="M190.05 166.156C174.099 160.033 154.466 152.686 129.925 146.563C111.52 140.44 98.0224 136.767 88.2061 133.093C79.6169 129.419 71.0276 124.521 64.8924 118.399C58.7573 112.276 55.0762 104.928 55.0762 96.3567C55.0762 85.3357 59.9843 76.7639 69.8006 69.4166C79.6169 63.2938 93.1143 59.6202 111.52 59.6202C129.925 59.6202 144.65 64.5184 155.693 73.0902C166.736 81.662 172.872 93.9075 174.099 108.602H244.04C242.813 75.5393 230.542 49.8238 207.229 30.231C183.915 10.6382 153.239 0.841797 115.201 0.841797C89.4332 0.841797 67.3465 4.51545 47.714 13.0873C28.0814 21.6591 13.357 33.9046 2.31366 48.5992C-8.72965 63.2938 -13.6378 79.213 -13.6378 97.5812C-13.6378 119.623 -7.50261 136.767 3.5407 150.237C14.584 163.707 28.0814 173.503 44.0329 179.626C59.9843 185.749 80.8439 191.872 105.385 199.219C131.152 206.566 149.558 212.689 161.828 218.812C174.099 224.934 180.234 234.731 180.234 246.976C180.234 259.222 175.326 269.018 164.282 276.365C153.239 283.713 138.515 287.386 118.882 287.386C100.476 287.386 84.525 282.488 72.2547 272.692C59.9843 262.895 52.6221 251.874 51.3951 237.18H-21C-19.773 257.997 -13.6378 276.365 -1.36744 292.285C10.9029 309.428 26.8544 321.674 47.714 331.47C68.5735 340.042 91.8872 344.94 120.109 346.165C145.877 346.165 167.963 342.491 187.596 333.919C206.001 325.347 220.726 313.102 231.769 298.407C242.813 282.488 247.721 266.569 247.721 246.976C247.721 226.159 241.585 209.015 230.542 195.545C219.499 182.075 206.001 172.279 190.05 166.156Z" fill="#E7B142"/>
</svg>
