<svg width="338" height="357" viewBox="0 0 338 357" fill="none" xmlns="http://www.w3.org/2000/svg">
<path d="M278.97 0.146484C270.38 11.1674 261.791 19.7393 254.429 29.5357C248.294 38.1075 243.386 38.1075 236.023 34.4339C207.802 22.1884 178.353 18.5147 147.677 22.1884C50.7411 34.4339 -13.0646 122.601 2.88683 219.341C18.8383 311.182 110.866 371.185 204.121 352.817C286.332 336.898 344.002 258.526 336.64 175.257C334.186 143.419 323.143 115.254 304.737 88.314C315.781 73.6194 326.824 60.1494 337.867 45.4548C318.235 29.5357 299.829 16.0656 278.97 0.146484ZM168.537 283.017C117.001 283.017 76.5089 240.158 76.5089 188.727C77.736 136.071 119.455 95.6613 170.991 95.6613C222.526 96.8859 263.018 138.521 263.018 189.952C263.018 240.158 220.072 283.017 168.537 283.017Z" fill="#E7B142"/>
</svg>
